<svg width="215" height="67" viewBox="0 0 215 67" fill="none" xmlns="http://www.w3.org/2000/svg">
<path d="M69.5173 34.8753C69.5173 15.5681 53.8779 -0.103569 34.5949 -0.000871418C15.3937 0.101826 0 15.6092 0 34.8753C0 43.8305 3.35714 51.9847 8.88413 58.1671C9.12977 58.4547 9.55965 58.4957 9.8667 58.2904C10.7265 57.6947 11.5862 57.325 12.1594 57.0991C13.3671 56.6883 14.6772 56.4007 16.0692 56.2364C16.4582 56.1953 16.8061 55.9899 17.0723 55.6818C19.2217 53.0322 21.412 49.9102 21.412 48.1849C21.412 48.1438 21.412 48.0822 21.412 48.0411C21.3096 46.8087 21.2892 46.3569 21.1868 45.8023C21.0845 45.2477 20.6136 45.3299 20.5932 45.3504C20.4294 45.5148 20.1428 45.3094 20.1223 45.3094C19.9791 45.2067 19.9381 45.1656 19.7334 44.9397C19.5287 44.7137 19.2626 44.4056 18.9351 44.0154C18.321 43.2554 17.8501 42.1668 17.0518 41.0577C15.4756 38.8599 13.8789 36.4568 13.5104 35.512C13.0396 34.3207 11.8728 31.2809 11.8728 27.5632C11.8728 25.2628 12.3231 22.6953 13.6742 20.169C20.1633 8.03009 31.074 8.99545 37.256 8.54358C37.5221 8.52304 37.8087 8.5025 38.0748 8.5025C43.9089 8.5025 48.3919 13.1034 50.4184 15.2395C51.0326 15.8762 51.2373 16.6362 51.2373 17.3756C51.2373 18.3204 50.8893 19.2652 50.5617 20.0457C50.2342 20.8262 49.9067 21.463 49.9067 21.7094V21.73C49.9476 22.4899 50.8893 23.825 50.9916 25.119C51.094 26.3924 51.3396 28.1794 51.4624 28.5491C51.5853 28.8983 51.5443 30.0074 51.5443 30.0074C51.3806 30.1512 50.1319 31.2809 50.1319 31.6711C50.1319 31.7533 50.1523 31.8354 50.1728 31.9176C50.2752 32.2051 50.1523 31.9997 50.4594 32.5132L53.837 37.9562C53.837 37.9562 54.881 38.9216 54.9219 39.2913V39.3324C54.9219 39.7021 54.5944 40.5853 53.9598 40.8317C53.5299 41.0166 52.3222 41.5301 51.749 41.9203C51.5648 42.0436 51.4624 42.1874 51.4624 42.2079C51.4624 42.4133 52.0151 43.1938 52.0151 43.8716C52.0151 44.2002 51.8923 44.5289 51.5238 44.7548C51.0735 45.0423 51.0326 45.3094 51.0326 45.5353C51.0326 45.5969 51.0326 45.6585 51.0326 45.6996C51.0326 45.8229 51.094 46.0077 51.094 46.2336C51.094 46.5212 51.0121 46.8498 50.6436 47.1168C50.4594 47.2401 50.357 47.6303 50.357 48.0411C50.357 48.3492 50.398 48.6778 50.4594 48.9243C50.5003 49.1708 50.9711 49.6021 51.442 50.1156C51.9128 50.6496 52.3836 51.3069 52.445 52.0669C52.445 52.108 52.445 52.149 52.445 52.1901C52.445 52.909 51.9128 53.4636 51.3396 53.8333C50.746 54.203 50.1114 54.3878 49.7839 54.3878C49.7634 54.3878 49.7429 54.3878 49.702 54.3878C49.3131 54.3468 48.3509 54.1619 47.307 54.1619C46.9794 54.1619 46.6314 54.1824 46.2834 54.2235C45.915 54.2646 45.5056 54.8808 45.1166 55.5586C44.7891 56.1337 44.3183 56.8526 44.3183 56.8731L44.9938 57.6742C44.9733 57.7974 46.0992 58.7011 46.4267 58.9682L47.3274 60.4881L48.4533 61.5561C48.8832 61.9669 48.6989 62.6653 48.1462 62.8501C46.8771 63.2404 45.3418 63.5074 43.5199 63.5074C37.2356 63.5074 32.2817 60.8373 23.0087 58.9887C17.0109 57.7974 12.8963 58.7011 10.7265 59.6665C10.3785 59.8308 10.5218 60.3443 10.8902 60.3238C13.0396 60.0978 16.233 59.646 19.2626 60.4059C25.5265 61.9875 37.7064 67.1018 43.2743 66.9375C48.5761 66.7732 52.0765 65.9105 57.2965 61.3918C64.7682 55.0451 69.5173 45.5148 69.5173 34.8753ZM209.432 49.9513C210.128 50.0335 210.742 49.4789 210.742 48.7805V40.729C210.742 39.9691 210.046 39.4145 209.309 39.5788C208.777 39.7021 208.388 40.1745 208.388 40.729V48.7805C208.388 49.3762 208.838 49.8897 209.432 49.9513ZM204.54 27.1319C205.686 27.3373 206.853 27.3373 207.999 27.1319C208.552 27.0292 209.023 27.5427 208.879 28.0972C208.572 29.2064 208.409 30.3566 208.409 31.5068V35.7585C208.409 36.2514 208.859 36.6211 209.33 36.4979L210.66 36.2103C211.274 36.0666 211.909 36.0666 212.503 36.2514C214.222 36.7649 215 38.4492 215 40.7496V47.7536C215 49.6021 214.672 52.5804 211.561 53.1555C210.988 53.2582 210.394 53.2582 209.801 53.1555L209.616 53.1349C207.917 52.8679 206.177 52.8474 204.478 53.0939C203.926 53.176 203.475 52.6625 203.639 52.1285C203.966 50.9988 204.13 49.8281 204.13 48.6573V31.5273C204.13 30.3771 203.966 29.2269 203.659 28.1178C203.516 27.5632 203.987 27.0292 204.54 27.1319ZM82.5364 49.6432C83.4781 49.7254 84.2764 48.9859 84.2764 48.0411V39.2707C84.2764 38.2848 83.3757 37.5249 82.4136 37.6892C81.6357 37.8124 81.083 38.4902 81.083 39.2707V48.0411C81.083 48.8832 81.7176 49.5816 82.5364 49.6432ZM75.1261 22.6542C74.8396 22.1408 75.208 21.504 75.7812 21.504L76.4567 21.5656C80.039 21.8737 83.6418 21.8327 87.2241 21.463C87.654 21.4219 87.9815 21.73 87.9815 22.1613V24.8725V27.5016C87.9815 28.0151 87.5721 28.4259 87.0604 28.4259C86.7124 28.4259 86.4053 28.2205 86.2415 27.9124L85.9959 27.4194C85.4841 26.3719 84.4197 25.7146 83.2529 25.7146H81.9018C81.472 25.7146 81.1444 26.0638 81.1444 26.4746V33.0267C81.1444 33.5402 81.6562 33.9099 82.1475 33.7456C82.9049 33.4991 83.9284 33.2116 84.7677 33.2116C86.303 33.2116 89.2507 33.6634 89.2507 38.3875V47.3839C89.2507 51.6355 86.8147 52.8063 85.0747 53.1144C84.3378 53.2582 83.5804 53.2376 82.8435 53.1349C80.7146 52.8474 78.5652 52.8474 76.4567 53.1349L75.7812 53.2376C75.1876 53.2376 74.8191 52.6009 75.1261 52.0874C75.7607 50.9577 76.0883 49.7048 76.0883 48.4108V26.3308C76.0883 25.0574 75.7607 23.7839 75.1261 22.6542ZM97.2341 26.7416C94.1226 26.7416 91.6048 29.6172 91.6048 33.1705V47.0141C91.6048 50.5675 94.1226 53.443 97.2341 53.443C100.346 53.443 102.863 50.5675 102.863 47.0141V33.1705C102.863 29.6172 100.346 26.7416 97.2341 26.7416ZM98.6056 47.2195C98.6056 47.9795 97.9915 48.5957 97.2341 48.5957C96.4767 48.5957 95.8626 47.9795 95.8626 47.2195V32.9446C95.8626 32.1846 96.4767 31.5684 97.2341 31.5684C97.9915 31.5684 98.6056 32.1846 98.6056 32.9446V47.2195ZM118.626 28.0767C118.953 29.2064 119.096 30.3566 119.096 31.5273C119.096 35.4298 119.096 44.837 119.096 48.6778C119.096 49.8281 118.933 50.9577 118.605 52.0669L118.585 52.108C118.421 52.642 118.892 53.1349 119.424 53.0322L119.69 52.9912C120.755 52.7858 121.86 52.8063 122.924 53.0322H122.965C123.498 53.1555 123.968 52.642 123.825 52.108L123.805 52.0463C123.498 50.9372 123.334 49.8075 123.334 48.6573V39.168C123.334 38.7572 123.293 38.3259 123.191 37.9357C123.047 37.3606 123.805 37.0319 124.132 37.5249L126.036 41.982C126.302 42.5981 127.162 42.5981 127.428 41.982L129.454 37.5249L129.536 37.4016C129.864 36.9292 130.601 37.2579 130.478 37.8124L130.437 37.9357C130.335 38.3465 130.294 38.7572 130.294 39.168V48.6368C130.294 49.787 130.13 50.9167 129.823 52.0258L129.802 52.0669C129.659 52.6009 130.109 53.0939 130.642 52.9912L130.724 52.9706C131.829 52.7652 132.975 52.7652 134.081 52.9706L134.163 52.9912C134.695 53.0939 135.145 52.5804 135.002 52.0463L134.981 51.9847C134.674 50.9167 134.511 49.787 134.511 48.6778V31.4863C134.511 30.3155 134.674 29.1653 134.981 28.0356C135.145 27.481 134.654 26.9676 134.101 27.0702C133.016 27.2962 131.89 27.2756 130.805 27.0292H130.765C130.396 26.947 130.028 27.1524 129.884 27.5016L127.305 34.4234C127.121 34.8958 126.466 34.8958 126.302 34.4029L123.927 27.5016C123.805 27.1319 123.416 26.9059 123.027 27.0086L122.822 27.0497C121.778 27.2756 120.693 27.2756 119.649 27.0702L119.424 27.0292C118.933 27.0292 118.482 27.5427 118.626 28.0767ZM150.355 28.0972C150.662 29.2064 150.825 30.3566 150.825 31.5068V48.6778C150.825 49.8281 150.662 50.9783 150.355 52.0874C150.191 52.642 150.662 53.1555 151.235 53.0528C152.381 52.8474 153.548 52.8474 154.674 53.0528C155.227 53.1555 155.697 52.642 155.554 52.0874C155.247 50.9783 155.083 49.8486 155.083 48.6984V40.5442C155.083 39.7842 155.697 39.168 156.455 39.168C157.212 39.168 157.826 39.7842 157.826 40.5442V48.6778C157.826 49.8281 157.663 50.9783 157.356 52.0669C157.192 52.6214 157.663 53.1349 158.236 53.0322C159.382 52.8268 160.549 52.8268 161.675 53.0322C162.227 53.1349 162.698 52.6214 162.555 52.0669C162.248 50.9577 162.084 49.8281 162.084 48.6778V31.5273C162.084 30.3771 162.248 29.2269 162.555 28.1178C162.719 27.5632 162.248 27.0497 161.675 27.1524C160.528 27.3578 159.362 27.3578 158.236 27.1524C157.683 27.0497 157.212 27.5632 157.356 28.1178C157.663 29.2269 157.826 30.3771 157.826 31.5273V33.3348C157.826 34.0948 157.212 34.711 156.455 34.711C155.697 34.711 155.083 34.0948 155.083 33.3348V31.5273C155.083 30.3771 155.247 29.2269 155.554 28.1178C155.718 27.5632 155.247 27.0497 154.674 27.1524C153.528 27.3578 152.361 27.3578 151.214 27.1524C150.662 27.0292 150.191 27.5632 150.355 28.0972ZM201.592 52.0669C201.285 50.9577 201.121 49.787 201.121 48.6368V31.63C201.121 30.3977 201.285 29.1858 201.633 28.0151C201.776 27.5016 201.367 26.9881 200.814 27.0497C197.948 27.3373 194.775 27.3373 191.909 27.0497C191.377 26.9881 190.947 27.5016 191.091 28.0151V28.0356C191.418 29.1653 191.541 30.3155 191.459 31.4863C191.357 33.2527 190.62 44.077 190.395 47.3017C190.354 47.7741 189.924 48.1027 189.453 48L189.228 47.9384C188.696 47.8152 188.204 48.2876 188.307 48.8216L189.044 52.8063C189.105 53.176 189.433 53.4225 189.801 53.4225H190.763C194.693 53.4225 194.284 49.52 194.796 41.7149C195.062 37.7508 195.185 34.0742 195.226 32.4927C195.246 32.0408 195.594 31.6916 196.044 31.6916C196.495 31.6916 196.863 32.0614 196.863 32.5132V48.6162C196.863 49.787 196.7 50.9372 196.392 52.0463C196.229 52.6009 196.7 53.1144 197.273 53.0117C198.419 52.8063 199.586 52.8063 200.732 53.0117C201.285 53.1349 201.756 52.6214 201.592 52.0669ZM174.059 27.1319C170.989 27.4194 167.898 27.4194 164.807 27.1319C164.295 27.0908 163.886 27.5427 163.988 28.0561L164.008 28.1178C164.213 29.042 164.213 29.9869 164.008 30.9111C163.886 31.4452 164.336 31.9176 164.868 31.8354L166.424 31.5889C166.895 31.5273 167.304 31.8765 167.304 32.3489V48.6573C167.304 49.8075 167.14 50.9577 166.833 52.0669C166.67 52.6214 167.14 53.1349 167.713 53.0322C168.86 52.8268 170.027 52.8268 171.173 53.0322C171.726 53.1349 172.197 52.6214 172.053 52.0669C171.746 50.9577 171.582 49.8075 171.582 48.6573V32.3489C171.582 31.8765 171.992 31.5273 172.463 31.5889L174.018 31.8354C174.551 31.9176 175.001 31.4452 174.878 30.9111C174.673 29.9869 174.673 29.042 174.878 28.1178L174.899 28.0561C174.98 27.5427 174.571 27.0908 174.059 27.1319ZM142.023 44.9397L145.36 42.3517C147.305 40.8317 148.451 38.5108 148.451 36.0255V33.1705C148.451 29.6172 145.933 26.7416 142.822 26.7416C139.71 26.7416 137.192 29.6172 137.192 33.1705V47.0141C137.192 50.5675 139.71 53.443 142.822 53.443C144.93 53.443 146.179 52.7036 147.202 51.6561C147.468 51.3685 147.612 50.9988 147.612 50.6086V46.6855C147.612 46.2542 147.264 45.9256 146.854 45.9256H146.67C146.404 45.9256 146.158 46.0693 146.015 46.2953L145.217 47.6303C144.848 48.2465 144.193 48.6162 143.477 48.6162C142.351 48.6162 141.45 47.7125 141.45 46.5828V46.1515C141.43 45.6791 141.655 45.2272 142.023 44.9397ZM141.43 32.9446C141.43 32.1435 142.126 31.4862 142.944 31.5684C143.661 31.63 144.193 32.2873 144.193 33.0062V35.8406C144.193 37.5043 143.518 39.1064 142.33 40.2566C142.003 40.5853 141.43 40.3388 141.43 39.8664V32.9446ZM187.345 52.108C187.078 51.2248 186.853 50.321 186.853 49.3967V47.0141V32.3695C186.853 28.8161 184.335 26.7416 181.224 26.7416C179.382 26.7416 178.194 27.2346 177.232 27.7275C176.72 27.9945 176.413 28.508 176.413 29.0831V32.8213C176.413 33.2937 176.802 33.6634 177.253 33.6634C177.58 33.6634 177.887 33.4786 178.01 33.1705C178.46 32.2051 179.382 31.5479 180.426 31.4863C182.002 31.4041 182.575 32.5954 182.575 33.8072V35.1012C182.575 35.5736 182.35 36.0255 181.981 36.313L179.423 38.3054C176.987 40.195 175.554 43.1116 175.554 46.2131C175.554 49.1092 175.636 53.2582 178.89 53.2582C179.955 53.2582 180.815 52.2723 181.818 51.5945C182.227 51.3274 182.759 51.6972 182.636 52.1696C182.473 52.7652 182.984 53.2582 183.537 53.1349L184.131 53.0117C184.888 52.8474 185.666 52.8885 186.423 53.0733C187.017 53.2171 187.508 52.6831 187.345 52.108ZM182.595 46.9936C182.595 47.7125 182.043 48.3287 181.306 48.3698C180.507 48.4314 179.832 47.7536 179.832 46.932V45.4121C179.832 43.7484 180.507 42.1463 181.695 40.9961C182.022 40.6674 182.595 40.9139 182.595 41.3863V46.9936ZM116.599 34.0537C116.599 31.1576 116.374 27.0086 113.569 27.0086C112.505 27.0086 111.256 27.974 110.253 28.6518C109.823 28.9393 109.312 28.5491 109.414 28.0561C109.537 27.481 109.045 27.0086 108.513 27.1113L108.042 27.214C107.367 27.3578 106.262 27.2962 105.586 27.1729C105.033 27.0702 104.562 27.5837 104.706 28.1178C104.91 28.9393 105.177 30.2744 105.177 31.1371V48.7805C105.177 49.9102 104.951 51.0194 104.685 52.1285C104.562 52.6625 105.033 53.1555 105.566 53.0528C106.712 52.8474 107.879 52.8474 109.046 53.0528C109.598 53.1555 110.069 52.6625 109.905 52.108C109.578 50.9783 109.414 49.8281 109.414 48.6573V48.0822C109.414 47.7125 109.741 47.4455 110.089 47.5071C110.785 47.6303 111.748 47.7946 112.218 47.8973C112.833 48.0411 113.488 48.0411 114.102 47.8357C115.78 47.3017 116.558 45.638 116.558 43.3581L116.599 34.0537ZM110.622 44.5494C109.946 44.4262 109.455 43.81 109.455 43.1322V32.9651C109.455 32.4721 109.721 32.0203 110.171 31.8149C111.133 31.363 112.362 31.9997 112.362 32.924V43.1322C112.341 44.0359 111.522 44.7137 110.622 44.5494ZM166.567 7.55768C164.172 7.55768 162.227 9.77595 162.227 12.5077V16.1637C162.227 18.8955 164.172 21.1138 166.567 21.1138C168.962 21.1138 170.907 18.8955 170.907 16.1637V12.5283C170.907 9.77595 168.962 7.55768 166.567 7.55768ZM167.632 16.3486C167.632 16.9443 167.161 17.4167 166.567 17.4167C165.974 17.4167 165.503 16.9443 165.503 16.3486V12.3434C165.503 11.7477 165.974 11.2753 166.567 11.2753C167.161 11.2753 167.632 11.7477 167.632 12.3434V16.3486ZM197.027 7.55768C194.632 7.55768 192.687 9.77595 192.687 12.5077V16.1637C192.687 18.8955 194.632 21.1138 197.027 21.1138C199.422 21.1138 201.367 18.8955 201.367 16.1637V12.5283C201.367 9.77595 199.422 7.55768 197.027 7.55768ZM198.091 16.3486C198.091 16.9443 197.621 17.4167 197.027 17.4167C196.433 17.4167 195.963 16.9443 195.963 16.3486V12.3434C195.963 11.7477 196.433 11.2753 197.027 11.2753C197.621 11.2753 198.091 11.7477 198.091 12.3434V16.3486ZM191.173 7.78362C188.798 8.00955 186.423 8.00955 184.049 7.78362C183.66 7.74254 183.332 8.11225 183.414 8.5025L183.435 8.54358C183.598 9.24192 183.598 9.98135 183.435 10.7002C183.353 11.111 183.68 11.4807 184.09 11.4191L185.298 11.2343C185.646 11.1726 185.973 11.4602 185.973 11.8094V17.4577C185.973 18.3409 185.85 19.2241 185.605 20.0868C185.482 20.4976 185.85 20.9084 186.28 20.8262C187.16 20.6619 188.061 20.6619 188.941 20.8262C189.371 20.9084 189.74 20.4976 189.617 20.0868C189.371 19.2241 189.248 18.3409 189.248 17.4577V11.8094C189.248 11.4397 189.576 11.1726 189.924 11.2343L191.132 11.4191C191.541 11.4807 191.889 11.111 191.787 10.7002C191.623 10.0019 191.623 9.26246 191.787 8.54358L191.807 8.5025C191.889 8.11225 191.561 7.74254 191.173 7.78362ZM211.663 13.1855C211.663 10.9467 211.479 7.76308 209.33 7.76308C208.511 7.76308 207.876 8.5025 207.098 9.03653C206.791 9.24192 206.341 8.97491 206.443 8.6052C206.566 8.15333 206.177 7.76308 205.747 7.84524L205.42 7.90685C204.806 8.03009 204.151 8.07117 203.557 7.90685C203.086 7.78362 202.677 8.21495 202.841 8.66682C203.107 9.42678 203.189 10.2278 203.189 11.0289V19.3885C203.189 20.2511 203.004 21.1138 202.82 21.9559C202.718 22.3667 203.086 22.7364 203.496 22.6748C204.376 22.5105 205.277 22.5105 206.157 22.6748C206.587 22.7569 206.935 22.3667 206.832 21.9559C206.587 21.0932 206.464 20.1895 206.464 19.2858V19.2652C206.464 19.0187 206.689 18.8134 206.955 18.875C207.405 18.9777 207.979 19.1009 208.327 19.1831C208.797 19.2858 209.309 19.2858 209.78 19.142C211.07 18.7312 211.663 17.4577 211.663 15.6913V13.1855ZM207.221 16.6156C206.791 16.5129 206.484 16.1227 206.484 15.6708V12.3639C206.484 11.9326 206.75 11.5424 207.16 11.3986C207.774 11.2137 208.388 11.6656 208.388 12.3229V15.6708C208.388 16.287 207.815 16.7389 207.221 16.6156ZM160.242 17.6426V10.9262C160.242 10.1046 160.426 9.32408 160.631 8.52304C160.733 8.13279 160.406 7.74254 159.996 7.78362C157.724 8.00955 155.411 8.00955 153.139 7.78362H153.098C152.709 7.78362 152.402 8.17387 152.525 8.54358C152.77 9.40624 152.893 10.31 152.811 11.1932C152.709 12.2818 152.095 15.4449 151.685 17.6631C151.624 17.9712 151.358 18.1972 151.03 18.1972H150.928C150.559 18.1972 150.293 18.5053 150.355 18.8544C150.518 19.8814 150.498 20.9084 150.314 21.9148V21.9559C150.232 22.3667 150.518 22.7159 150.948 22.7159C151.173 22.7159 151.399 22.5926 151.501 22.3872C152.095 21.2986 153.241 20.6208 154.49 20.6208H157.274C158.522 20.6208 159.648 21.2986 160.262 22.3872C160.385 22.5926 160.59 22.7159 160.815 22.7159H160.835C161.245 22.7159 161.552 22.3256 161.45 21.9148L161.429 21.8327C161.245 20.8468 161.245 19.8198 161.388 18.8134V18.7517C161.388 18.4231 161.122 18.1561 160.795 18.1561C160.508 18.2382 160.242 17.9712 160.242 17.6426ZM155.718 12.0353C155.718 11.7272 155.923 11.4602 156.23 11.3986C156.639 11.3164 156.987 11.6245 156.987 12.0148V17.2113C156.987 17.7658 156.537 18.2177 155.984 18.2177C155.349 18.2177 154.858 17.6221 155.001 17.0059C155.308 15.4243 155.677 12.9185 155.718 12.0353ZM182.432 19.7376C182.043 19.2858 181.818 18.7312 181.613 18.1766L179.955 13.3293C179.852 13.0007 179.873 12.6309 180.016 12.3229L180.835 10.6797C181.122 10.1046 181.449 9.55002 181.859 9.05707L182.043 8.83113C182.206 8.64628 182.227 8.3998 182.166 8.21495C182.063 7.86577 181.674 7.722 181.326 7.8247C180.507 8.09171 179.627 8.09171 178.808 7.84524L178.706 7.80416C178.522 7.74254 178.297 7.76308 178.153 7.88631C177.969 8.00955 177.867 8.23549 177.887 8.48196C177.949 9.09815 177.805 9.71433 177.58 10.2894L177.294 10.9878C177.212 11.2137 176.987 11.378 176.741 11.378H176.536C176.188 11.378 175.922 11.0905 175.943 10.7413C175.984 9.85811 176.106 9.22138 176.291 8.52304C176.413 8.11225 176.045 7.70146 175.615 7.78362C174.735 7.94793 173.834 7.94793 172.954 7.78362C172.524 7.70146 172.156 8.11225 172.278 8.52304C172.524 9.3857 172.647 10.2689 172.647 11.1521V17.4372C172.647 18.3204 172.524 19.2036 172.278 20.0663C172.156 20.4771 172.524 20.8878 172.954 20.8057C173.834 20.6414 174.735 20.6414 175.615 20.8057C176.045 20.8057 176.372 20.3949 176.25 19.9636C176.024 19.142 175.922 18.2999 175.922 17.4372V15.3627C175.922 15.0341 176.188 14.7671 176.516 14.7671C176.782 14.7671 177.028 14.9519 177.089 15.1984L178.031 18.3615C178.215 18.9982 178.256 19.5939 178.317 20.2511C178.358 20.6414 178.706 20.9289 179.095 20.8468L179.914 20.6824C180.548 20.5592 181.183 20.7235 181.818 20.8262C182.432 20.9084 182.841 20.21 182.432 19.7376Z" fill="url(#paint0_linear)"/>
<defs>
<linearGradient id="paint0_linear" x1="73.5411" y1="96.7612" x2="146.383" y2="-28.9793" gradientUnits="userSpaceOnUse">
<stop stop-color="#00827E"/>
<stop offset="1" stop-color="#5FBDC6"/>
</linearGradient>
</defs>
</svg>
