<?xml version="1.0" encoding="UTF-8"?>
<!DOCTYPE svg PUBLIC "-//W3C//DTD SVG 1.1//EN" "http://www.w3.org/Graphics/SVG/1.1/DTD/svg11.dtd">
<!-- Creator: CorelDRAW 2018 (Оценочная версия) -->
<svg xmlns="http://www.w3.org/2000/svg" xml:space="preserve" width="86mm" height="66mm" version="1.1" style="shape-rendering:geometricPrecision; text-rendering:geometricPrecision; image-rendering:optimizeQuality; fill-rule:evenodd; clip-rule:evenodd"
viewBox="0 0 8600 6600"
 xmlns:xlink="http://www.w3.org/1999/xlink">
 <defs>
  <style type="text/css">
   <![CDATA[
    .fil1 {fill:#FEFEFE}
    .fil0 {fill:#FEFEFE;fill-rule:nonzero}
   ]]>
  </style>
 </defs>
 <g id="Layer_x0020_1">
  <metadata id="CorelCorpID_0Corel-Layer"/>
  <g id="_787959040">
   <g>
    <path class="fil0" d="M6099.09 4822.28l0 264.3c0,125.21 -55.09,190.72 -142.76,190.72 -87.64,0 -142.72,-65.51 -142.72,-190.72l0 -978.27c0,-125.21 55.08,-186.7 142.72,-186.7 87.67,0 142.76,61.49 142.76,186.7l0 205.6 260.43 0 0 -596.56 -52.17 5.59c-4.97,33.13 -20.71,68.59 -48.89,98.36 -68.87,-77.18 -172.52,-118.43 -309.63,-118.43 -270.47,0 -410.7,160.29 -410.7,440.74l0 911.56c0,280.47 140.23,440.74 410.7,440.74 137.14,0 240.76,-41.22 309.63,-118.41 28.18,29.8 43.92,65.21 48.89,98.34l52.17 5.59 0 -659.15 -260.43 0z"/>
    <path class="fil0" d="M675.47 5086.58c0,125.21 -47.73,190.78 -142.76,190.78 -93.97,0 -142.72,-65.57 -142.72,-190.78l0 -974.38c0,-125.21 47.97,-190.7 142.72,-190.7 93.56,0 142.76,65.49 142.76,190.7l0 201.71 260.43 0 0 -596.56 -52.17 5.59c-4.97,33.13 -20.7,68.59 -48.89,98.36 -68.87,-77.18 -172.52,-118.43 -309.63,-118.43 -270.47,0 -410.7,160.29 -410.7,440.74l0 911.56c0,280.47 140.23,440.74 410.7,440.74 137.14,0 240.78,-41.25 309.66,-118.43 28.18,29.76 43.89,65.2 48.86,98.33l52.17 5.59 0 -980.07c-136.61,7.28 -279.08,3.5 -414.69,-3.98l13.89 52.12c67.21,3.59 140.62,72.43 140.34,198.09l0.03 339.02z"/>
    <path class="fil0" d="M7563.65 3970.23l0 1073.54c0,280.45 140.22,454.61 410.64,454.64 270.41,-0.03 410.64,-174.19 410.64,-454.64l0 -1073.54c1.16,-123.11 24.62,-191.65 91.3,-195.21l13.9 -52.11c-158.63,8.17 -327.23,8.17 -485.85,0l13.89 52.11c66.16,3.53 89.75,70.99 91.28,192.29l0 1115.29c0,121.55 -32.63,194.87 -135.16,194.87 -95.34,0 -135.17,-73.32 -135.17,-194.87l0 -1115.29c1.53,-121.3 25.13,-188.76 91.28,-192.29l13.9 -52.11c-158.63,8.17 -327.23,8.17 -485.86,0l13.9 52.11c66.68,3.56 90.14,72.1 91.31,195.21z"/>
    <path class="fil0" d="M2134.02 5225.63c-10.53,59.65 -22.34,115.66 -35.29,173.64 13.95,25.87 31.4,50 52.58,72.57 111.63,-2.28 217.16,-1.89 331.4,4l-13.9 -52.11c-82.6,-3.48 -106.98,-45.23 -86.19,-185.67l24.13 -161.66c53.11,-5.78 109.42,-8.89 169.54,-8.89 57.82,0 115.21,3.11 169.22,8.92l24.13 161.63c20.79,140.44 -3.59,182.19 -86.2,185.67l-13.89 52.11c277.8,-14.34 618.93,-14.37 897.18,0l-13.89 -52.11c-67.21,-3.59 -90.5,-73.16 -91.34,-198.1l0 -957.19 -2.5 -76.1 17.79 70.48 327.81 1213.05 282.98 0 0 -1497.39 0.03 -5.36c0.83,-124.94 25.35,-194.51 92.55,-198.1l13.9 -52.11c-150.7,7.75 -307.66,7.75 -458.36,0l13.89 52.11c67.21,3.59 91.73,73.49 92.56,198.43l0 2.92 0 727.75 3 81.97 -19.62 -75.49 -266.36 -987.69c-140.64,8 -310.35,7.23 -450.8,0l13.9 52.11c67.2,3.59 90.5,73.16 91.33,198.1l0 1252.51c-0.81,119.96 -25.38,181.75 -83.49,183.7 -51.34,-0.56 -89.42,-56.68 -111.88,-183.7l-200.4 -1252.51c-27.13,-166.72 5.56,-192.73 91.33,-198.1l13.9 -52.11c-292.2,10.01 -401.66,9.95 -693.87,0l13.9 52.11c85.78,5.37 118.46,31.38 91.33,198.1l-200.4 1252.51zm300.24 -333.81c35.55,-238.4 73.24,-491.33 135.98,-910.36 2.33,-15.62 3.44,-32.55 4.14,-49.62l3.5 0c0.69,17.07 1.81,34 4.14,49.62 62.73,419.03 100.42,671.96 135.97,910.36l-283.73 0z"/>
    <path class="fil0" d="M1144.56 5225.63c-0.83,124.94 -24.13,194.51 -91.33,198.1l-13.9 52.11c158.62,-8.17 327.23,-8.17 485.85,0l-13.9 -52.11c-65.81,-3.51 -89.5,-70.3 -91.25,-190.37l0 -596.28 81.25 0c125.21,0 194.2,117.54 194.2,296.26l0 227.98c0,335.42 221.58,527.79 537.72,438.15 -207.1,-100.25 -260.5,-260.85 -262.25,-422.12l0 -216.41c0,-182.8 -45.08,-360.58 -182.8,-418.17 122.71,-57.59 180.3,-133.61 180.3,-313.91l0 -102.76c0,-270.47 -122.71,-403.19 -408.19,-403.19 -176.58,-2.84 -299.82,22.32 -520.93,0l13.9 52.11c67.2,3.59 90.5,73.16 91.33,198.1l0 1252.51zm408.19 -1293.4c97.65,0 140.23,54.51 140.23,179.72l0 172.77c0,140.26 -62.6,171.44 -165.27,171.44l-107.68 0 0 -496.41c-0.08,-9.45 0.45,-18.21 2.89,-27.52l129.83 0z"/>
    <path class="fil0" d="M6564.37 5225.63c-0.83,124.94 -24.13,194.51 -91.33,198.1l-13.9 52.11c158.62,-8.17 327.23,-8.17 485.85,0l-13.9 -52.11c-65.81,-3.51 -89.5,-70.3 -91.25,-190.37l0 -596.28 81.25 0c125.21,0 194.2,117.54 194.2,296.26l0 227.98c0,335.42 221.58,527.79 537.72,438.15 -207.1,-100.25 -260.5,-260.85 -262.25,-422.12l0 -216.41c0,-182.8 -45.08,-360.58 -182.8,-418.17 122.71,-57.59 180.3,-133.61 180.3,-313.91l0 -102.76c0,-270.47 -122.71,-403.19 -408.19,-403.19 -176.58,-2.84 -299.82,22.32 -520.93,0l13.9 52.11c67.2,3.59 90.5,73.16 91.33,198.1l0 1252.51zm408.19 -1293.4c97.65,0 140.23,54.51 140.23,179.72l0 172.77c0,140.26 -62.6,171.44 -165.27,171.44l-107.68 0 0 -496.41c-0.08,-9.45 0.45,-18.21 2.89,-27.52l129.83 0z"/>
    <path class="fil0" d="M4779.06 5475.87c275.44,0 410.69,-152.76 410.69,-433.24l0 -886.48c0,-280.48 -135.25,-433.24 -410.69,-433.24 -180.03,0 -333.68,17.09 -540.94,0l13.89 52.11c66.68,3.56 90.14,72.08 91.31,195.18l0 1258.32c-1.17,123.11 -24.63,191.65 -91.31,195.21l-13.89 52.11c248.12,-12.84 345.98,1 540.94,0.03zm-5.01 -1543.64c87.64,0 140.23,44.5 140.23,169.69l0 981.04c0,125.22 -52.59,179.33 -140.23,179.33l-152.9 0c-1.61,-6.97 -2.36,-14.59 -2.36,-21.87l0 -1281.51c0,-8.81 0.81,-18.26 3,-26.68l152.26 0z"/>
   </g>
   <g>
    <path class="fil1" d="M6264.53 6376.63c-42.53,54.68 -102.54,77.52 -172.61,77.52 -45,0 -93.66,-9.31 -124.61,-44.86 -22.08,-25.33 -31.16,-56.11 -31.16,-89.44 0,-42.91 20.57,-77.49 52.39,-105.3 66.87,-58.47 179.45,-87.09 266.3,-102.68l0 -34.5c0,-26.36 -7.5,-50.03 -26.38,-68.94 -20.83,-20.86 -51.28,-26.44 -79.67,-26.44 -20.57,0 -40.46,3.78 -59.43,11.69 -9.48,3.96 -24.14,11.49 -24.14,23.59 0,10.97 3.72,18.06 14.54,21.12 18.47,5.21 27.31,19.05 27.31,37.9 0,17.48 -5.73,32.93 -18.12,45.32 -12.16,12.16 -27.11,18.15 -44.27,18.15 -18.99,0 -36.07,-5.96 -50.67,-18.12 -15.33,-12.77 -22.43,-29.82 -22.43,-49.65 0,-39.94 16.17,-73.74 44.45,-101.7 39.85,-39.44 92.94,-52.97 147.77,-52.97 63.96,0 131.68,14.61 170.28,70.28 23.3,33.63 30.51,75.37 30.51,115.54l0 238.2c0,37.85 12.34,68.74 46.6,87.24l15.04 8.14 -15.42 7.39c-42.52,20.45 -95.7,17.17 -126.24,-22.31 -10.35,-13.38 -16.7,-28.68 -20.04,-45.17zm-9.69 -201.85c-48.81,9.31 -114.6,25.69 -152.16,55.36 -58.29,46.1 -49.13,155.68 32.84,155.68 76.3,0 119.32,-71.27 119.32,-141.08l0 -69.96z"/>
    <path class="fil1" d="M4997.04 6203.03c0.81,47.88 8.55,102.59 36.88,141.75 20.04,27.72 46.25,43.63 80.95,43.63 27.78,0 53.44,-7.16 76.8,-22.22 31.09,-20.05 53.11,-49.08 68.76,-82.24l58.79 29.73c-22.05,50.82 -55.62,93.61 -106.12,118.13 -34.35,16.67 -73.24,22.34 -111.11,22.34 -71.47,0 -132.15,-24.84 -176.45,-81.74 -42.01,-53.96 -57.63,-119.15 -57.63,-186.66 0,-71.76 18.68,-138.95 67.17,-193.06 45.75,-51.08 103.84,-75.37 172.26,-75.37 67.11,0 124.03,23.54 166.68,76.22 40.95,50.58 56.69,111.75 56.69,176.1l0 33.39 -333.67 0zm0.05 -65.74l197.19 0c3.09,0 5.79,-0.79 8.29,-2.62 2.04,-1.48 2.3,-6.83 2.3,-9.02l0 -20.39c0,-32.63 -7.53,-64.25 -29.49,-89.21 -18.74,-21.26 -41.66,-32.99 -70.16,-32.99 -29.88,0 -53.03,14.84 -71.62,37.59 -26.62,32.57 -35.46,75.36 -36.51,116.64z"/>
    <path class="fil1" d="M2446.17 6171.44c30.45,5.96 58.09,19.08 78.33,43.2 21.06,25.07 29.94,54.97 29.94,87.52 0,44.1 -20.86,77.44 -57.66,101.05 -46.54,29.94 -113.88,35.9 -167.63,35.9 -32.79,0.7 -65.34,-0.64 -97.83,-1.6l-41.19 -0.35c-34.09,0.12 -68.94,0.23 -102.97,1.95l-10.64 0.52 8.11 -54.01 7.13 -0.38c37.32,-1.86 43.57,-38.17 43.57,-69.23l0 -260.55c0,-31.12 -6.25,-67.31 -43.57,-69.23l-7.13 -0.37 -8.11 -54.02 10.64 0.52c34.03,1.72 68.88,1.83 102.89,1.98l46.1 -0.47 47.71 -1.1 9.6 -0.41c20.47,-0.14 40.95,-0.38 61.23,0 48.4,-0.2 102.79,8.15 140.87,40.52 27.23,23.16 40.64,53.23 40.64,88.9 0,36.71 -17.28,65.42 -46.43,87.12 -13.26,9.91 -27.86,17.51 -43.6,22.54zm-200.77 36.97l0 146.69c0,3.23 0.44,13.76 3.81,15.74 5.56,3.32 21.91,3.61 28.25,3.61l49.36 0c25.89,0 53,-4.95 73.22,-22.23 18.41,-15.7 25.36,-36.94 25.36,-60.76 0,-29.7 -10.5,-53.35 -37.29,-67.84 -22.28,-12.07 -50.29,-15.21 -75.25,-15.21l-67.46 0zm0 -65.74l68.53 0c20.77,0 46.98,-1.77 65.98,-10.91 20.53,-9.89 30.74,-26.82 33.71,-48.55l0.03 -23.27c-3.06,-24.43 -14.25,-42.49 -36.86,-53 -16.81,-7.79 -37.03,-9.91 -55.35,-9.91l-60.1 0c-11.57,0 -15.94,4.39 -15.94,15.97l0 129.67z"/>
    <path class="fil1" d="M4454.28 6439.63l8.11 -54.01 10.19 -0.38c37.34,-1.4 43.54,-38.17 43.54,-69.23l0 -262.03c0,-18.12 -2.5,-41.71 -15.21,-55.47 -14.34,-13.56 -37.47,-6.17 -52.16,2.68 -36.47,21.93 -57.42,74.05 -57.42,115.21l0 8.73 -60.39 0 0 -192.77 479.84 0 0 192.77 -60.38 0 0 -8.73c0,-41.16 -20.98,-93.28 -57.42,-115.21 -14.26,-8.59 -36.86,-15.8 -51.17,-3.55l0.12 -0.15c-12.54,12.71 -15.54,34.59 -16.09,51.23l0 273.43c0.96,29.87 8.64,61.84 43.46,63.09l10.18 0.38 8.12 54.01c-78.31,-2.99 -155.02,-2.99 -233.32,0z"/>
    <path class="fil1" d="M4292.72 6185.75c0,155.54 -96.66,271.48 -257.37,271.48 -159.78,0 -257.37,-116.93 -257.37,-271.48 0,-153.88 98.34,-271.51 257.37,-271.51 159.96,0 257.37,116.64 257.37,271.51zm-136.89 0c0,-48.87 -4.8,-116.24 -33.13,-158.01 -21.09,-31.06 -49.68,-47.18 -87.35,-47.18 -32.35,0 -58.61,11.72 -79,36.94 -35.06,43.4 -41.46,114.7 -41.46,168.25 0,53.03 6.03,125.05 40.47,168.28 20.39,25.62 47.44,36.88 79.99,36.88 34.03,0 61.49,-12.39 81.85,-39.88 32.44,-43.86 38.63,-112.6 38.63,-165.28z"/>
    <path class="fil1" d="M2982.38 6101.48l-215.54 260.72c0.81,15.07 3.46,41.22 21.61,42.15l6.34 0.35 9.31 35.02 -11.95 -0.61c-26.77,-1.37 -53.85,-1.69 -80.64,-1.69 -26.79,0 -53.9,0.32 -80.66,1.69l-11.95 0.61 9.33 -35.02 6.34 -0.35c22.55,-1.16 22.11,-41.92 22.11,-57.1l0.03 -323.03c0,-15.21 0.44,-55.9 -22.14,-57.1l-6.34 -0.35 -9.33 -35.02 11.95 0.61c26.76,1.37 53.87,1.69 80.66,1.69 26.79,0 53.87,-0.32 80.64,-1.69l11.95 -0.61 -9.31 35.02 -6.34 0.35c-21.15,1.11 -21.67,36.92 -22.02,51.4l0 252.31 203.74 -249.22c3.05,-4.05 11.28,-12.8 11.25,-17.84l0 -0.2c-1.28,-13.15 -4.07,-35.52 -21.17,-36.45l-6.34 -0.35 -9.34 -35.02 11.95 0.61c26.76,1.37 53.87,1.69 80.66,1.69 26.8,0 53.88,-0.32 80.64,-1.69l11.95 -0.61 -9.31 35.02 -6.34 0.35c-21.11,1.11 -21.64,36.95 -22.02,51.4l0 334.2c0.38,14.66 0.91,50.55 22.02,51.63l6.34 0.35 9.31 35.02 -11.95 -0.61c-26.76,-1.37 -53.84,-1.69 -80.64,-1.69 -26.79,0 -53.9,0.32 -80.66,1.69l-11.95 0.61 9.34 -35.02 6.34 -0.35c22.54,-1.16 22.1,-41.92 22.1,-57.1l0.03 -245.77z"/>
    <path class="fil1" d="M3373.39 6141.62l201.03 0 0 -86.16c0,-31.09 -6.23,-67.31 -43.55,-69.23l-7.13 -0.37 -8.11 -54.02 10.65 0.52c34.03,1.72 68.88,1.98 102.94,1.98 34.09,0 68.94,-0.26 102.97,-1.98l10.65 -0.52 -8.12 54.02 -7.12 0.37c-34.45,1.78 -42.33,32.44 -43.43,62.02l0 274.83c1.1,29.7 8.98,60.44 43.43,62.16l7.12 0.38 8.12 54.01 -10.65 -0.52c-34.03,-1.72 -68.88,-1.95 -102.97,-1.95 -34.06,0 -68.91,0.23 -102.94,1.95l-10.65 0.52 8.11 -54.01 7.13 -0.38c37.32,-1.86 43.55,-38.17 43.55,-69.23l0 -109.75 -201.03 0 0 116.82c1.1,29.7 8.99,60.44 43.43,62.16l7.12 0.38 8.12 54.01 -10.65 -0.52c-34.03,-1.72 -68.88,-1.95 -102.94,-1.95 -34.09,0 -68.94,0.23 -102.97,1.95l-10.65 0.52 8.12 -54.01 7.12 -0.38c37.32,-1.86 43.58,-38.17 43.58,-69.23l0 -260.55c0,-31.12 -6.26,-67.31 -43.58,-69.23l-7.12 -0.37 -8.12 -54.02 10.65 0.52c34.03,1.72 68.88,1.98 102.97,1.98 34.06,0 68.91,-0.26 102.94,-1.98l10.65 -0.52 -8.12 54.02 -7.12 0.37c-34.44,1.78 -42.33,32.44 -43.43,62.02l0 93.37z"/>
    <path class="fil1" d="M5687.83 6169.4c23.06,7.45 43.83,19.81 62.04,37 26.44,24.93 43.17,56.64 52.85,91.46 32.96,118.36 54.6,166.06 154.72,212.11 -123.82,34.61 -217.23,-11.61 -255.54,-150.18 -7.5,-27.17 -14.22,-54.28 -21.29,-81.07 -22.75,-60.68 -52.74,-69.23 -114.11,-69.23l-29.21 0 0 112.66c0.96,29.87 8.67,61.34 43.46,63.09l7.13 0.38 8.11 54.01 -10.64 -0.52c-34.04,-1.75 -68.88,-1.95 -102.98,-1.95 -34.06,0 -68.91,0.2 -102.94,1.95l-10.65 0.52 8.12 -54.01 7.13 -0.38c37.32,-1.86 43.54,-38.17 43.54,-69.23l0 -260.55c0,-31.09 -6.22,-67.28 -43.54,-69.23l-7.13 -0.37 -8.12 -54.02 10.65 0.52c34.03,1.72 68.88,1.98 102.94,1.98 34.1,0 68.94,-0.26 102.98,-1.98l10.64 -0.52 -8.11 54.02 -7.13 0.37c-34.79,1.78 -42.5,33.19 -43.46,62.81l0 94.71 12.39 0c23.07,0 77.55,-1.02 96.43,-16.29 19.03,-15.36 34.15,-71.41 39.97,-94.13 5.88,-22.84 14.11,-50.03 26.79,-70.08 19.72,-31.12 49.13,-45.93 85.75,-45.93 27.08,0 51.61,8.15 69.84,28.71 13.65,15.42 21.5,33.34 21.5,54.05 0,19.93 -4.33,40.29 -18.76,54.95 -13.03,13.26 -29.35,19.25 -47.91,19.25 -18.65,0 -35.05,-6.28 -45.55,-22.16 -8.23,-12.42 -13.62,-26.27 -13.62,-41.31l0 -6.98c-0.61,0.9 -1.13,1.75 -1.39,2.24 -5.06,8.73 -8.76,21.09 -11.46,30.54 -6.34,24.41 -12.57,50.73 -20.63,74.85 -8.87,24.11 -22.42,45 -42.81,57.94z"/>
   </g>
   <g>
    <path class="fil1" d="M4251.37 86.16c874.92,0 1584.22,709.29 1584.22,1584.22 0,750.23 -521.57,1378.62 -1221.83,1542.52l0 -284.31c376.09,-195.12 642.83,-684.83 642.83,-1258.21 0,-689.95 -386.23,-1258.83 -884.42,-1338.88l0 459.81c0.91,121.24 23.9,207.71 101.45,209.08l223.63 0 26.49 157.79c-269.3,-37.14 -675.44,-37.14 -944.74,0l26.49 -157.79 219.88 0c99.42,0 104.76,-141.31 105.23,-211.99l0 -697.71c39.86,-3.03 80.13,-4.53 120.77,-4.53zm-120.77 2923.09l0 -388.37c37.11,15.78 77.91,24.54 120.77,24.54 42.86,0 83.69,-8.76 120.8,-24.54l0 629.16c-39.86,3.03 -80.16,4.56 -120.8,4.56 -874.92,0 -1584.22,-709.3 -1584.22,-1584.22 0,-750.27 521.6,-1378.65 1221.89,-1542.53l0 284.26c-376.12,195.06 -642.9,684.83 -642.9,1258.27 0,689.95 386.24,1258.82 884.46,1338.87z"/>
    <circle class="fil1" cx="3736.02" cy="1467.1" r="206.7"/>
    <circle class="fil1" cx="3993.7" cy="1896.56" r="206.7"/>
    <circle class="fil1" cx="4251.37" cy="2326.01" r="206.7"/>
    <circle class="fil1" cx="4251.37" cy="1467.1" r="206.7"/>
    <circle class="fil1" cx="4509.04" cy="1896.56" r="206.7"/>
    <circle class="fil1" cx="4766.72" cy="1467.1" r="206.7"/>
   </g>
  </g>
 </g>
</svg>
