<?xml version="1.0"?>
<svg xmlns="http://www.w3.org/2000/svg" height="512px" viewBox="-21 0 496 496" width="512px"><g><path d="m266.863281 326.703125c0-21.34375-17.359375-38.703125-38.703125-38.703125h-2.59375c-21.34375 0-38.703125 17.359375-38.703125 38.703125 0 7.664063 2.25 15.089844 6.496094 21.472656l2.5625 3.824219h-9.058594v48h8.640625l8 96h46.71875l8-96h8.640625v-48h-9.054687l2.550781-3.832031c4.257813-6.375 6.503906-13.800781 6.503906-21.464844zm-16 57.296875h-48v-16h48zm-15.359375 96h-17.28125l-6.664062-80h30.609375zm-20.359375-128-8.472656-12.703125c-2.488281-3.746094-3.808594-8.105469-3.808594-12.59375 0-12.519531 10.183594-22.703125 22.703125-22.703125h2.59375c12.519532 0 22.703125 10.183594 22.703125 22.703125 0 4.496094-1.320312 8.847656-3.816406 12.59375l-8.460937 12.703125zm0 0" data-original="#000000" class="active-path" data-old_color="#000000" fill="#008AD2"/><path d="m453.726562 456.679688-63.832031-75.433594 4.730469-4.726563-33.5625-33.574219-5.804688 5.816407-1.066406-5.304688c-1.183594-5.914062-3.710937-11.378906-7.328125-16.097656v-56.449219c0-17.132812-10.894531-32.351562-27.109375-37.871094l-16.882812-5.742187c26.953125-7.351563 40.863281-20.863281 41.640625-21.640625l7.847656-7.847656-9.925781-4.96875c-17-8.503906-27.570313-25.601563-27.570313-44.617188v-60.222656c0-48.519531-39.480469-88-88-88s-88 39.480469-88 88v60.222656c0 19.015625-10.566406 36.121094-27.574219 44.625l-9.929687 4.96875 7.847656 7.847656c.785157.785157 14.695313 14.289063 41.640625 21.640626l-16.878906 5.742187c-16.207031 5.511719-27.105469 20.738281-27.105469 37.863281v56.449219c-3.617187 4.71875-6.144531 10.183594-7.328125 16.089844l-1.0625 5.304687-5.808594-5.816406-33.558593 33.574219 4.726562 4.726562-63.832031 75.433594 34.191406 34.175781 75.410156-63.808594 5.320313 5.328126 33.566406-33.589844-6.390625-6.394532 5.308594-1.0625c7.601562-1.511718 14.503906-5.207031 19.992188-10.695312 13.9375-13.9375 14.984374-35.769531 3.457031-51.089844v-19.128906c0-7.839844 2.304687-15.445312 6.65625-21.980469 6.121093-9.167969 9.351562-19.832031 9.351562-30.851562v-25.628907l10.496094-3.578124c4.847656 11.519531 16.242187 19.632812 29.503906 19.632812 13.265625 0 24.65625-8.113281 29.503907-19.632812l10.496093 3.578124v25.628907c0 11.019531 3.234375 21.683593 9.34375 30.859375 4.351563 6.542968 6.65625 14.140625 6.65625 21.992187v19.125c-11.527343 15.3125-10.480469 37.152344 3.457031 51.089844 5.480469 5.488281 12.390626 9.175781 19.992188 10.695313l5.3125 1.0625-6.394531 6.394531 33.570312 33.589843 5.320313-5.328124 75.40625 63.808593zm-122.863281-185.769532v44.121094c-10.269531-4.261719-21.933593-3.839844-32 1.023438v-5.628907c0-11.019531-3.230469-21.683593-9.34375-30.859375-4.351562-6.542968-6.65625-14.140625-6.65625-21.992187v-20.191407l31.738281 10.800782c9.726563 3.320312 16.261719 12.449218 16.261719 22.726562zm-48-118.910156v-32c8.824219 0 16 7.175781 16 16s-7.175781 16-16 16zm-56-136c39.695313 0 72 32.304688 72 72v20.449219c-4.726562-2.753907-10.144531-4.449219-16-4.449219v-16h-8c-10.902343 0-20.550781-6.953125-24-17.304688l-4.503906-13.503906-9.152344 9.152344c-13.96875 13.96875-32.535156 21.65625-52.285156 21.65625h-14.058594v16c-5.855469 0-11.269531 1.695312-16 4.449219v-20.449219c0-39.695312 32.304688-72 72-72zm0 176c-22.054687 0-40-17.945312-40-40v-48.015625c19.542969-.410156 38.058594-7.023437 53.28125-18.90625 6.046875 9.402344 15.6875 15.984375 26.71875 18.152344v48.769531c0 22.054688-17.941406 40-40 40zm-56-72v32c-8.824219 0-16-7.175781-16-16s7.175781-16 16-16zm-41.886719 80.609375c12.382813-9.402344 20.910157-22.808594 24.261719-37.9375 5.066407 3.351563 11.113281 5.328125 17.625 5.328125h2.359375c3.65625 12.246094 11.402344 22.726562 21.640625 29.886719v14.433593l-10.519531 3.582032c-26.894531-.527344-45.480469-9.09375-55.367188-15.292969zm-93.886718 268.535156-13.363282-13.367187 53.449219-63.175782 23.070313 23.085938zm79.832031-59.410156-33.203125-33.214844 10.945312-10.953125 33.199219 33.21875zm41.175781-40.414063c-3.242187 3.230469-7.320312 5.421876-11.808594 6.320313l-15.777343 3.152344-16.441407-16.441407 3.152344-15.765624c.90625-4.496094 3.089844-8.585938 6.328125-11.824219 8.730469-8.738281 23.960938-8.738281 32.6875 0l1.859375 1.855469c9.007813 9.023437 9.007813 23.6875 0 32.703124zm8.109375-89.761718c-6.109375 9.183594-9.34375 19.847656-9.34375 30.867187v5.628907c-10.0625-4.855469-21.726562-5.285157-32-1.023438v-44.121094c0-10.277344 6.535157-19.414062 16.265625-22.71875l31.734375-10.800781v20.195313c0 7.839843-2.304687 15.4375-6.65625 21.972656zm62.65625-47.558594c-8.824219 0-16-7.175781-16-16v-10.359375c5.074219 1.519531 10.441407 2.359375 16 2.359375 5.5625 0 10.929688-.839844 16-2.359375v10.359375c0 8.824219-7.175781 16-16 16zm32-34.113281c10.242188-7.160157 17.984375-17.648438 21.640625-29.886719h2.359375c6.511719 0 12.5625-1.976562 17.617188-5.328125 3.359375 15.128906 11.886719 28.535156 24.261719 37.9375-9.894532 6.207031-28.46875 14.765625-55.367188 15.292969l-10.511719-3.582032zm50.578125 177.753906c-4.488281-.898437-8.570312-3.089844-11.808594-6.320313-9.007812-9.015624-9.007812-23.679687 0-32.695312l1.855469-1.855469c8.726563-8.738281 23.960938-8.738281 32.6875 0 3.230469 3.230469 5.425781 7.328125 6.328125 11.824219l3.152344 15.765625-16.441406 16.441406zm51.621094-10.082031 10.945312 10.953125-33.199218 33.214843-10.945313-10.949218zm-5.582031 50.128906 23.070312-23.085938 53.449219 63.175782-13.359375 13.367187zm0 0" data-original="#000000" class="active-path" data-old_color="#000000" fill="#008AD2"/></g> </svg>
