<?xml version="1.0"?>
<svg xmlns="http://www.w3.org/2000/svg" id="Layer_5" enable-background="new 0 0 64 64" height="512px" viewBox="0 0 64 64" width="512px" class="hovered-paths"><g><path d="m63 13.669v-.669c0-6.617-5.383-12-12-12s-12 5.383-12 12v.669c0 2.378.697 4.68 2.016 6.656l4.889 7.334c-3.06.864-4.905 2.466-4.905 4.341v12.913c-1.007-.661-2.362-1.184-4-1.52v-5.736c0-1.336-.521-2.592-1.465-3.536l-6.535-6.535v-5.727c5.189-1.001 9-5.544 9-10.914v-6.445c0-1.93-1.57-3.5-3.5-3.5s-3.5 1.57-3.5 3.5v5.07c0 2.237-1.459 4.139-3.52 4.773.949-1.195 1.52-2.702 1.52-4.343 0-3.86-3.141-7-7-7s-7 3.14-7 7c0 2.014.86 3.826 2.225 5.104-4.586.531-8.76 3.177-11.161 7.178l-4.586 7.644c-.313.52-.478 1.116-.478 1.725 0 1.847 1.503 3.349 3.35 3.349h.394c1.122 0 2.164-.558 2.786-1.491l6.193-9.29c.315-.474.764-.829 1.277-1.03v10.671l-3.85 13.475c-.003.01-.004.02-.006.029-3.809.748-6.144 2.491-6.144 4.636v6c0 2.851 4.299 5 10 5 4.068 0 7.412-1.098 9-2.76 1.588 1.663 4.932 2.76 9 2.76s7.412-1.098 9-2.76c1.588 1.663 4.932 2.76 9 2.76 5.701 0 10-2.149 10-5v-26c0-1.877-1.845-3.477-4.905-4.34l4.889-7.334c1.319-1.977 2.016-4.279 2.016-6.657zm-26.044 31.764c2.633.611 4.044 1.722 4.044 2.567 0 1.224-3.116 3-8 3s-8-1.776-8-3c0-.845 1.411-1.956 4.044-2.567.219 2 1.898 3.567 3.956 3.567s3.737-1.567 3.956-3.567zm-13.956 3.486c-.909-.598-2.103-1.083-3.531-1.42l4.23-13.394 5.301 5.189v4.099c-3.723.763-6 2.49-6 4.607zm-.028-23.305-.972.972-.972-.972.575-8.618h.306c.031 0 .06.004.091.004.033 0 .064-.004.096-.005h.004.003c.099-.001.195-.009.293-.015zm-5.972-15.614c0-2.757 2.243-5 5-5s5 2.243 5 5-2.243 5-5 5-5-2.243-5-5zm-4 38.404c0-.176.024-.35.073-.519l3.889-13.611.038-13.274h-1c-1.587 0-3.061.789-3.941 2.109l-6.193 9.29c-.252.376-.671.601-1.123.601h-.393c-.745 0-1.35-.605-1.35-1.349 0-.245.066-.485.192-.694l4.587-7.645c2.336-3.894 6.608-6.312 11.148-6.312l.671-.001-.626 9.387 3.028 3.028 3.028-3.028-.642-9.62 2.31-.231c3.594-.359 6.304-3.354 6.304-6.965v-5.07c0-.827.673-1.5 1.5-1.5s1.5.673 1.5 1.5v6.445c0 4.652-3.486 8.547-8.11 9.062l-.89.098v8.309l7.121 7.121c.567.567.879 1.32.879 2.122v7.343c0 1.103-.897 2-2 2s-2-.897-2-2v-5.706c0-.534-.219-1.055-.602-1.43l-5.99-5.864h-2.141l-5.584 17.683c-.248.788-.971 1.317-1.797 1.317-1.04 0-1.886-.846-1.886-1.886zm-1.968 1.031c.167 1.991 1.821 3.565 3.854 3.565 1.703 0 3.191-1.091 3.704-2.716l.273-.866c2.685.61 4.137 1.738 4.137 2.582 0 1.224-3.116 3-8 3s-8-1.776-8-3c0-.844 1.407-1.953 4.032-2.565zm3.968 11.565c-4.884 0-8-1.776-8-3v-2.936c1.794 1.191 4.651 1.936 8 1.936s6.206-.745 8-1.936v2.936c0 1.224-3.116 3-8 3zm18 0c-4.884 0-8-1.776-8-3v-6-.936c1.794 1.191 4.651 1.936 8 1.936s6.206-.745 8-1.936v6.936c0 1.224-3.116 3-8 3zm18 0c-4.884 0-8-1.776-8-3v-10-12.936c1.794 1.191 4.651 1.936 8 1.936s6.206-.745 8-1.936v22.936c0 1.224-3.116 3-8 3zm8-29c0 1.224-3.116 3-8 3s-8-1.776-8-3c0-.823 1.438-1.953 4.087-2.568l1.527 2.29c.532.8 1.425 1.278 2.386 1.278s1.854-.478 2.387-1.277l1.527-2.29c2.649.614 4.086 1.742 4.086 2.567zm-7.277-1.387c-.322.484-1.123.484-1.445 0l-7.598-11.397c-1.099-1.647-1.68-3.565-1.68-5.547v-.669c0-5.514 4.486-10 10-10s10 4.486 10 10v.669c0 1.981-.581 3.899-1.68 5.547z" data-original="#000000" class="active-path" data-old_color="#000000" fill="#008AD2"/><path d="m51 5c-4.411 0-8 3.589-8 8s3.589 8 8 8 8-3.589 8-8-3.589-8-8-8zm0 14c-3.309 0-6-2.691-6-6s2.691-6 6-6 6 2.691 6 6-2.691 6-6 6z" data-original="#000000" class="active-path" data-old_color="#000000" fill="#008AD2"/><path d="m45 39h2v2h-2z" data-original="#000000" class="active-path" data-old_color="#000000" fill="#008AD2"/><path d="m45 43h2v14h-2z" data-original="#000000" class="active-path" data-old_color="#000000" fill="#008AD2"/></g> </svg>
