<?xml version="1.0"?>
<svg xmlns="http://www.w3.org/2000/svg" height="512px" version="1.1" viewBox="-101 1 934 934.99938" width="512px"><g><g id="surface1">
<path d="M 324.519531 392.808594 C 330.613281 398.890625 340.46875 398.890625 346.5625 392.808594 L 393.308594 346.0625 C 399.386719 339.972656 399.386719 330.113281 393.308594 324.027344 L 73.847656 4.566406 C 67.765625 -1.523438 57.902344 -1.523438 51.8125 4.566406 L 5.070312 51.316406 C -1.023438 57.402344 -1.023438 67.265625 5.070312 73.347656 Z M 360.253906 335.042969 L 335.542969 359.757812 L 287.453125 311.667969 L 312.167969 286.957031 Z M 62.832031 37.617188 L 290.128906 264.914062 L 265.414062 289.632812 L 38.121094 62.339844 Z M 62.832031 37.617188 " data-original="#000000" class="active-path" data-old_color="#000000" fill="#008AD2"/>
<path d="M 719.269531 436.457031 C 552.40625 415.601562 383.589844 415.601562 216.738281 436.457031 C 208.933594 437.433594 203.082031 444.0625 203.082031 451.917969 L 203.082031 514.25 C 203.082031 518.71875 205 522.972656 208.351562 525.933594 C 211.703125 528.878906 216.160156 530.265625 220.59375 529.710938 C 250.488281 525.984375 280.464844 523.160156 310.484375 520.777344 L 281.003906 918.257812 C 280.679688 922.589844 282.179688 926.863281 285.128906 930.042969 C 288.089844 933.214844 292.238281 935.019531 296.582031 935 L 639.417969 935 C 643.753906 935.019531 647.910156 933.214844 650.855469 930.042969 C 653.816406 926.863281 655.316406 922.589844 654.996094 918.257812 L 625.515625 520.777344 C 655.53125 523.160156 685.515625 525.984375 715.402344 529.710938 C 716.039062 529.785156 716.683594 529.835938 717.328125 529.835938 C 725.9375 529.835938 732.914062 522.855469 732.914062 514.25 L 732.914062 451.917969 C 732.914062 444.0625 727.0625 437.433594 719.269531 436.457031 Z M 313.367188 903.835938 L 335.289062 607.75 L 600.710938 607.75 L 622.628906 903.835938 Z M 337.59375 576.585938 L 341.917969 518.351562 C 425.882812 513.035156 510.109375 513.035156 594.082031 518.351562 L 598.40625 576.585938 Z M 701.746094 496.675781 C 546.433594 478.65625 389.554688 478.65625 234.25 496.675781 L 234.25 465.722656 C 389.542969 447.425781 546.445312 447.425781 701.746094 465.722656 Z M 701.746094 496.675781 " data-original="#000000" class="active-path" data-old_color="#000000" fill="#008AD2"/>
<path d="M 483.363281 168.863281 C 482.101562 161.363281 475.601562 155.882812 468 155.882812 C 460.394531 155.882812 453.902344 161.363281 452.632812 168.863281 C 448.390625 194.253906 428.488281 214.148438 403.09375 218.390625 C 395.601562 219.648438 390.101562 226.148438 390.101562 233.75 C 390.101562 241.355469 395.601562 247.851562 403.09375 249.113281 C 428.488281 253.355469 448.390625 273.25 452.632812 298.640625 C 453.902344 306.136719 460.394531 311.621094 468 311.621094 C 475.601562 311.621094 482.101562 306.136719 483.363281 298.640625 C 487.605469 273.25 507.503906 253.355469 532.902344 249.113281 C 540.394531 247.851562 545.882812 241.355469 545.882812 233.75 C 545.882812 226.148438 540.394531 219.648438 532.902344 218.390625 C 507.503906 214.148438 487.605469 194.253906 483.363281 168.863281 Z M 468 255.996094 C 461.921875 247.355469 454.394531 239.832031 445.746094 233.75 C 454.394531 227.671875 461.921875 220.148438 468 211.492188 C 474.070312 220.148438 481.609375 227.671875 490.246094 233.75 C 481.609375 239.832031 474.070312 247.355469 468 255.996094 Z M 468 255.996094 " data-original="#000000" class="active-path" data-old_color="#000000" fill="#008AD2"/>
<path d="M 543.347656 124.449219 C 568.738281 128.6875 588.640625 148.582031 592.882812 173.976562 C 594.152344 181.472656 600.648438 186.957031 608.246094 186.957031 C 615.847656 186.957031 622.351562 181.472656 623.609375 173.976562 C 627.855469 148.582031 647.757812 128.6875 673.152344 124.449219 C 680.644531 123.1875 686.132812 116.691406 686.132812 109.085938 C 686.132812 101.484375 680.644531 94.984375 673.152344 93.71875 C 647.757812 89.480469 627.855469 69.589844 623.609375 44.199219 C 622.351562 36.695312 615.847656 31.214844 608.246094 31.214844 C 600.648438 31.214844 594.152344 36.695312 592.882812 44.199219 C 588.640625 69.589844 568.738281 89.480469 543.347656 93.71875 C 535.84375 94.984375 530.351562 101.484375 530.351562 109.085938 C 530.351562 116.691406 535.84375 123.1875 543.347656 124.449219 Z M 608.246094 86.828125 C 614.320312 95.480469 621.855469 103.007812 630.5 109.085938 C 621.855469 115.164062 614.320312 122.6875 608.246094 131.332031 C 602.164062 122.6875 594.644531 115.164062 585.996094 109.085938 C 594.644531 103.007812 602.164062 95.480469 608.246094 86.828125 Z M 608.246094 86.828125 " data-original="#000000" class="active-path" data-old_color="#000000" fill="#008AD2"/>
<path d="M 358.96875 855.792969 L 370.644531 715.542969 L 401.707031 718.132812 L 390.03125 858.375 Z M 358.96875 855.792969 " data-original="#000000" class="active-path" data-old_color="#000000" fill="#008AD2"/>
<path d="M 372.585938 684.679688 L 374.527344 653.507812 L 405.640625 655.460938 L 403.6875 686.625 Z M 372.585938 684.679688 " data-original="#000000" class="active-path" data-old_color="#000000" fill="#008AD2"/>
<path d="M 327.75 46.75 L 327.75 93.503906 L 281.003906 93.503906 L 281.003906 124.667969 L 327.75 124.667969 L 327.75 171.414062 L 358.914062 171.414062 L 358.914062 124.667969 L 405.667969 124.667969 L 405.667969 93.503906 L 358.914062 93.503906 L 358.914062 46.75 Z M 327.75 46.75 " data-original="#000000" class="active-path" data-old_color="#000000" fill="#008AD2"/>
</g></g> </svg>
