<?xml version="1.0"?>
<svg xmlns="http://www.w3.org/2000/svg" height="512px" viewBox="0 0 48 60" width="512px"><g><g id="035---Creative-Writing"><path id="Shape" d="m10.591 17h-6.591c-2.209139 0-4 1.790861-4 4v35c0 2.209139 1.790861 4 4 4h28c2.209139 0 4-1.790861 4-4v-9.27c0-.5522847-.4477153-1-1-1s-1 .4477153-1 1v9.27c0 1.1045695-.8954305 2-2 2h-28c-1.1045695 0-2-.8954305-2-2v-35c0-1.1045695.8954305-2 2-2h7.755c.7716778.8911333 1.2115235 2.0216603 1.245 3.2v5.8c.0052514 1.2667854.8056491 2.3937454 2 2.816 0 1.277-.131 2.313.874 3.292.8558384.859637 2.1451412 1.1192853 3.2670094.6579318 1.1218681-.4613535 1.855506-1.5529095 1.8589906-2.7659318v-1.184c1.1943509-.4222546 1.9947486-1.5492146 2-2.816v-5.99c.0353432-1.1199764.4751315-2.1892516 1.238-3.01h7.762c1.1045695 0 2 .8954305 2 2 0 .5522847.4477153 1 1 1 2.092 0 .814-5-3-5h-6.583c1.3559973-3.3418748.3082841-7.17786207-2.5582345-9.36645219-2.8665187-2.18859012-6.8430123-2.18859012-9.709531 0-2.8665186 2.18859012-3.91423179 6.02457739-2.5582345 9.36645219zm10.409 6v2h-6v-2zm-3 10c-.5504721-.0043518-.9956482-.4495279-1-1v-1h2v1c0 .5522847-.4477153 1-1 1zm3-5c0 .5522847-.4477153 1-1 1h-4c-.5522847 0-1-.4477153-1-1v-1h6zm-7-18.475c2.3431637-2.11047808 5.9201966-2.04690493 8.1868869.14550221 2.2666903 2.19240709 2.4493732 5.76533769.4181131 8.17749779-.7723382.8985936-1.2917621 1.9864502-1.505 3.152h-2.1v-5c0-.5522847-.4477153-1-1-1s-1 .4477153-1 1v5h-2.12c-.625-3.231-2.88-3.538-2.88-7 .0003295-1.7081281.7275997-3.3353951 2-4.475z" data-original="#000000" class="active-path" data-old_color="#000000" fill="#008AD2"/><path id="Shape" d="m19 3v-2c0-.55228475-.4477153-1-1-1s-1 .44771525-1 1v2c0 .55228475.4477153 1 1 1s1-.44771525 1-1z" data-original="#000000" class="active-path" data-old_color="#000000" fill="#008AD2"/><path id="Shape" d="m29 15h2c.5522847 0 1-.4477153 1-1s-.4477153-1-1-1h-2c-.5522847 0-1 .4477153-1 1s.4477153 1 1 1z" data-original="#000000" class="active-path" data-old_color="#000000" fill="#008AD2"/><path id="Shape" d="m7 13h-2c-.55228475 0-1 .4477153-1 1s.44771525 1 1 1h2c.55228475 0 1-.4477153 1-1s-.44771525-1-1-1z" data-original="#000000" class="active-path" data-old_color="#000000" fill="#008AD2"/><path id="Shape" d="m27.9 22.485-1.414-1.414c-.2510745-.2599566-.6228779-.3642126-.9725073-.2726972-.3496295.0915155-.6226744.3645604-.7141899.7141899-.0915154.3496294.0127406.7214328.2726972.9725073l1.413 1.415c.3907415.3907414 1.0242585.3907414 1.415 0 .3907414-.3907415.3907414-1.0242585 0-1.415z" data-original="#000000" class="active-path" data-old_color="#000000" fill="#008AD2"/><path id="Shape" d="m9.515 6.929c.25107447.25995658.6228779.3642126.9725073.27269716.3496295-.09151544.6226744-.3645604.7141899-.71418984.0915154-.34962943-.0127406-.72143285-.2726972-.97250732l-1.414-1.415c-.2527654-.2527654-.62117901-.35148153-.96646297-.25896297-.34528397.09251856-.61498144.36221603-.7075.7075-.09251856.34528396.00619757.71369757.25896297.96646297z" data-original="#000000" class="active-path" data-old_color="#000000" fill="#008AD2"/><path id="Shape" d="m9.515 23.9 1.414-1.414c.2599566-.2510745.3642126-.6228779.2726972-.9725073-.0915155-.3496295-.3645604-.6226744-.7141899-.7141899-.3496294-.0915154-.72143283.0127406-.9725073.2726972l-1.415 1.413c-.25276541.2527654-.35148154.621179-.25896299.966463.09251856.3452839.36221604.6149814.70750001.7075.34528397.0925185.71369758-.0061976.96646298-.258963z" data-original="#000000" class="active-path" data-old_color="#000000" fill="#008AD2"/><path id="Shape" d="m26.485 4.1-1.414 1.415c-.3789722.39237889-.3735524 1.01608478.0121814 1.40181858.3857338.38573379 1.0094397.39115363 1.4018186.01218142l1.415-1.414c.2527654-.2527654.3514816-.62117901.258963-.96646299-.0925186-.34528397-.362216-.61498146-.7075-.70750001-.345284-.09251856-.7136976.00619758-.966463.258963z" data-original="#000000" class="active-path" data-old_color="#000000" fill="#008AD2"/><path id="Shape" d="m5 27c0 .5522847.44771525 1 1 1h4c.5522847 0 1-.4477153 1-1s-.4477153-1-1-1h-4c-.55228475 0-1 .4477153-1 1z" data-original="#000000" class="active-path" data-old_color="#000000" fill="#008AD2"/><path id="Shape" d="m27 26h-1c-.5522847 0-1 .4477153-1 1s.4477153 1 1 1h1c.5522847 0 1-.4477153 1-1s-.4477153-1-1-1z" data-original="#000000" class="active-path" data-old_color="#000000" fill="#008AD2"/><path id="Shape" d="m6 33h4c.5522847 0 1-.4477153 1-1s-.4477153-1-1-1h-4c-.55228475 0-1 .4477153-1 1s.44771525 1 1 1z" data-original="#000000" class="active-path" data-old_color="#000000" fill="#008AD2"/><path id="Shape" d="m6 43h11.11c.5522847 0 1-.4477153 1-1s-.4477153-1-1-1h-11.11c-.55228475 0-1 .4477153-1 1s.44771525 1 1 1z" data-original="#000000" class="active-path" data-old_color="#000000" fill="#008AD2"/><path id="Shape" d="m15.5 47c0-.5522847-.4477153-1-1-1h-8.5c-.55228475 0-1 .4477153-1 1s.44771525 1 1 1h8.5c.5522847 0 1-.4477153 1-1z" data-original="#000000" class="active-path" data-old_color="#000000" fill="#008AD2"/><path id="Shape" d="m6 51c-.55228475 0-1 .4477153-1 1s.44771525 1 1 1h6.36c.5522847 0 1-.4477153 1-1s-.4477153-1-1-1z" data-original="#000000" class="active-path" data-old_color="#000000" fill="#008AD2"/><path id="Shape" d="m6 38h16.11c.5522847 0 1-.4477153 1-1s-.4477153-1-1-1h-16.11c-.55228475 0-1 .4477153-1 1s.44771525 1 1 1z" data-original="#000000" class="active-path" data-old_color="#000000" fill="#008AD2"/><path id="Shape" d="m43 22.423c-2.389 0-3.436 1.365-4.95 2.879l-.707-.707c-1.1714996-1.1711458-3.0705004-1.1711458-4.242 0l-6.364 6.363c-.3907414.3904653-.3909653 1.0237585-.0005 1.4145.3904653.3907414 1.0237585.3909653 1.4145.0005l6.364-6.364c.3904999-.3903819 1.0235001-.3903819 1.414 0l.707.707c-18.829 18.827-17.767 17.7-17.9 18.008-.4.805 1.431-3.34-4.235 9.882-.1326502.3094381-.1006893.664855.0850388.945663s.5002906.4493104.8369612.448337c.293 0-.473.291 10.293-4.324.406-.174.228-.124 20.819-20.718 1.4213966-1.4327785 1.8438465-3.5787563 1.0715645-5.443375s-2.5883585-3.0834505-4.6065645-3.091625zm-25.673 30.677 2.673-6.248 3.568 3.568zm8-3.753-4.247-4.247 14.849-14.85 4.243 4.243zm19.8-19.8-3.541 3.533-4.243-4.243 3.536-3.537c1.1870572-1.1329556 3.0549428-1.1329556 4.242 0 .563025.5626643.8793595 1.3260174.8793595 2.122s-.3163345 1.5593357-.8793595 2.122z" data-original="#000000" class="active-path" data-old_color="#000000" fill="#008AD2"/></g></g> </svg>
