<?xml version="1.0"?>
<svg xmlns="http://www.w3.org/2000/svg" height="512px" viewBox="0 0 480 480" width="512px"><g><path d="m88 226.664062v45.335938c0 4.417969 3.582031 8 8 8h288c4.417969 0 8-3.582031 8-8v-45.335938l46.398438-61.863281c1.820312-2.425781 2.113281-5.667969.757812-8.378906s-4.125-4.421875-7.15625-4.421875h-128v-24c-.027344-22.082031-17.917969-39.972656-40-40h-48c-22.082031.027344-39.972656 17.917969-40 40v24h-128c-3.03125 0-5.800781 1.710938-7.15625 4.421875s-1.0625 5.953125.757812 8.378906zm200-98.664062v24h-25.753906l-6-24 6-24h1.753906c13.253906 0 24 10.746094 24 24zm-49.753906 8h3.507812l4 16h-11.507812zm7.507812-32-4 16h-3.507812l-4-16zm-53.753906 24c0-13.253906 10.746094-24 24-24h1.753906l6 24-6 24h-25.753906zm224 40-24 32v-24h-16v88h-272v-88h-16v24l-24-32zm0 0" data-original="#000000" class="active-path" data-old_color="#0a8ef3" fill="#0a8ef3"/><path d="m208 33.761719v22.238281c0 13.253906 10.746094 24 24 24h16c13.253906 0 24-10.746094 24-24v-16c4.417969 0 8-3.582031 8-8v-8c0-13.253906-10.746094-24-24-24h-48c-4.417969 0-8 3.582031-8 8v8c.019531 6.789062 2.929688 13.246094 8 17.761719zm48 22.238281c0 4.417969-3.582031 8-8 8h-16c-4.417969 0-8-3.582031-8-8v-16h32zm0-40c4.417969 0 8 3.582031 8 8h-40c-4.417969 0-8-3.582031-8-8zm0 0" data-original="#000000" class="active-path" data-old_color="#0a8ef3" fill="#0a8ef3"/><path d="m264 384h-48c-22.082031.027344-39.972656 17.917969-40 40v48c0 4.417969 3.582031 8 8 8h112c4.417969 0 8-3.582031 8-8v-48c-.027344-22.082031-17.917969-39.972656-40-40zm24 80h-96v-40c0-13.253906 10.746094-24 24-24h48c13.253906 0 24 10.746094 24 24zm0 0" data-original="#000000" class="active-path" data-old_color="#0a8ef3" fill="#0a8ef3"/><path d="m200 336c0 22.089844 17.910156 40 40 40s40-17.910156 40-40-17.910156-40-40-40c-22.082031.027344-39.972656 17.917969-40 40zm64 0c0 13.253906-10.746094 24-24 24s-24-10.746094-24-24 10.746094-24 24-24 24 10.746094 24 24zm0 0" data-original="#000000" class="active-path" data-old_color="#0a8ef3" fill="#0a8ef3"/><path d="m440 384h-48c-22.082031.027344-39.972656 17.917969-40 40v48c0 4.417969 3.582031 8 8 8h112c4.417969 0 8-3.582031 8-8v-48c-.027344-22.082031-17.917969-39.972656-40-40zm24 80h-96v-40c0-13.253906 10.746094-24 24-24h48c13.253906 0 24 10.746094 24 24zm0 0" data-original="#000000" class="active-path" data-old_color="#0a8ef3" fill="#0a8ef3"/><path d="m376 336c0 22.089844 17.910156 40 40 40s40-17.910156 40-40-17.910156-40-40-40c-22.082031.027344-39.972656 17.917969-40 40zm64 0c0 13.253906-10.746094 24-24 24s-24-10.746094-24-24 10.746094-24 24-24 24 10.746094 24 24zm0 0" data-original="#000000" class="active-path" data-old_color="#0a8ef3" fill="#0a8ef3"/><path d="m88 384h-48c-22.082031.027344-39.9726562 17.917969-40 40v48c0 4.417969 3.582031 8 8 8h112c4.417969 0 8-3.582031 8-8v-48c-.027344-22.082031-17.917969-39.972656-40-40zm24 80h-96v-40c0-13.253906 10.746094-24 24-24h48c13.253906 0 24 10.746094 24 24zm0 0" data-original="#000000" class="active-path" data-old_color="#0a8ef3" fill="#0a8ef3"/><path d="m64 376c22.089844 0 40-17.910156 40-40s-17.910156-40-40-40-40 17.910156-40 40c.027344 22.082031 17.917969 39.972656 40 40zm0-64c13.253906 0 24 10.746094 24 24s-10.746094 24-24 24-24-10.746094-24-24 10.746094-24 24-24zm0 0" data-original="#000000" class="active-path" data-old_color="#0a8ef3" fill="#0a8ef3"/></g> </svg>
