<?xml version="1.0"?>
<svg xmlns="http://www.w3.org/2000/svg" height="512px" viewBox="0 -85 511.31866 511" width="512px" class=""><g><path d="m470.433594 51.363281h23.679687c6.695313.023438 12.785157-3.867187 15.574219-9.949219 2.808594-5.84375 1.941406-12.789062-2.21875-17.757812-12.476562-15.234375-31.261719-23.890625-50.949219-23.480469-19.6875.414063-38.09375 9.847657-49.921875 25.585938h-32.683594c-3.085937-12.265625-12.75-21.792969-25.0625-24.695313-12.3125-2.90625-25.214843 1.292969-33.460937 10.890625-6.398437-7.484375-15.75-11.796875-25.597656-11.796875-9.847657 0-19.203125 4.3125-25.601563 11.796875-6.398437-7.484375-15.753906-11.796875-25.597656-11.796875-9.847656 0-19.203125 4.3125-25.601562 11.796875-8.242188-9.597656-21.148438-13.796875-33.457032-10.890625-12.3125 2.902344-21.980468 12.429688-25.066406 24.695313h-49.746094c-11.832031-15.742188-30.238281-25.175781-49.925781-25.585938-19.6875-.410156-38.472656 8.25-50.949219 23.488281-4.15625 4.96875-5.023437 11.910157-2.21875 17.75 2.792969 6.082032 8.882813 9.972657 15.574219 9.949219h23.679687c9.308594-.253906 17.300782 6.570313 18.507813 15.804688.355469 4.949219-1.457031 9.808593-4.964844 13.320312-3.199219 3.226563-7.558593 5.03125-12.101562 5.007813h-24.59375c-6.695313-.058594-12.792969 3.863281-15.511719 9.984375-2.839844 6.203125-1.722656 13.503906 2.839844 18.578125 12.621094 14.507812 31.085937 22.589844 50.308594 22.015625 19.21875-.574219 37.167968-9.742188 48.902343-24.976563h14.199219l-11.527344 28.816406c-3.667968 9.3125-3.105468 19.761719 1.542969 28.628907l51.507813 82.910156c1.179687 2.367187 1.796874 4.980469 1.800781 7.628906v65.347657c0 9.425781 7.640625 17.066406 17.066406 17.066406h119.464844c9.425781 0 17.066406-7.640625 17.066406-17.066406v-44.75c.003906-2.632813.613281-5.234376 1.785156-7.59375l31.796875-42.855469c14.753906-19.226563 23.714844-42.269531 25.828125-66.414063.214844-3.011718.324219-6.023437.324219-9.054687v-42.664063h31.921875c11.734375 15.230469 29.683594 24.398438 48.902344 24.96875 19.21875.574219 37.679687-7.503906 50.300781-22.007812 4.566406-5.074219 5.683594-12.371094 2.847656-18.578125-2.71875-6.121094-8.8125-10.042969-15.511718-9.984375h-24.59375c-4.527344.011718-8.871094-1.792969-12.058594-5.007813-3.507813-3.511719-5.320313-8.371093-4.964844-13.320312 1.207031-9.21875 9.171875-16.035157 18.464844-15.804688zm-129.441406-34.132812c9.425781 0 17.066406 7.640625 17.066406 17.066406v59.734375c0 9.421875-7.640625 17.066406-17.066406 17.066406-9.425782 0-17.066407-7.644531-17.066407-17.066406v-59.734375c0-9.425781 7.640625-17.066406 17.066407-17.066406zm-51.199219 0c9.425781 0 17.066406 7.640625 17.066406 17.066406v59.734375c0 9.421875-7.640625 17.066406-17.066406 17.066406s-17.066407-7.644531-17.066407-17.066406v-59.734375c0-9.425781 7.640626-17.066406 17.066407-17.066406zm-51.199219 0c9.425781 0 17.066406 7.640625 17.066406 17.066406v27.304687c-2.855468-1.09375-5.878906-1.671874-8.9375-1.707031h-25.195312v-25.597656c0-9.425781 7.640625-17.066406 17.066406-17.066406zm-51.203125 0c9.425781 0 17.066406 7.640625 17.066406 17.066406v25.597656h-34.132812v-25.597656c0-9.425781 7.640625-17.066406 17.066406-17.066406zm-133.972656 101.800781c-13.632813-.078125-26.582031-6-35.558594-16.265625l-6.390625 5.652344 6.261719-5.855469h24.59375c9.488281 0 18.546875-3.945312 25.007812-10.894531 6.457031-6.945313 9.734375-16.269531 9.042969-25.730469-1.773438-18.1875-17.222656-31.960938-35.492188-31.640625l-23.894531.289063c8.960938-10.914063 22.3125-17.277344 36.429688-17.355469 27.457031.65625 49.207031 23.398437 48.640625 50.859375.589844 27.480468-21.160156 50.261718-48.640625 50.941406zm60.714843-25c6.574219-16.421875 6.660157-34.726562.230469-51.203125h38.894531v19.714844c-11.421874 4.097656-20.542968 12.902343-25.042968 24.171875l-2.917969 7.316406zm243.644532 67.574219c-1.890625 20.902343-9.699219 40.832031-22.511719 57.453125l-32.203125 43.402344c-.242188.332031-.460938.679687-.65625 1.039062-2.683594 4.984375-4.085938 10.554688-4.082031 16.214844v44.714844h-119.464844v-65.347657c-.03125-5.558593-1.398437-11.027343-3.984375-15.949219l-51.484375-82.902343c-2.179687-4.359375-2.390625-9.441407-.578125-13.96875l21.28125-53.207031c3.859375-9.738282 13.289062-16.125 23.765625-16.09375h78.863281c2.554688 0 4.976563 1.125 6.625 3.074218 1.574219 1.839844 2.253906 4.285156 1.851563 6.671875-3.703125 21.828125-17.902344 32.921875-42.207031 32.921875h-25.601563c-4.125-.003906-7.660156 2.945313-8.402344 7.003906-.738281 4.058594 1.53125 8.066407 5.390625 9.515626.632813.242187 62.746094 24.355468 62.746094 77.347656 0 4.710937 3.820312 8.535156 8.535156 8.535156 4.710938 0 8.53125-3.824219 8.53125-8.535156 0-37.546875-23.652344-62.464844-44.195312-77.054688 16.871094-.253906 32.613281-8.503906 42.421875-22.230468 6.066406 8.371093 15.632812 13.503906 25.964843 13.925781 10.328126.421875 20.28125-3.914063 27.007813-11.765625 10.589844 12.460937 28.636719 15.441406 42.667969 7.046875v30.34375c0 2.621093-.09375 5.242187-.28125 7.84375zm17.347656-67.574219v-51.203125h21.828125c-6.425781 16.476563-6.34375 34.78125.230469 51.203125zm69.742188-1.476562c6.382812 6.421874 15.070312 10.027343 24.125 10.007812l24.464843.203125c-8.976562 10.265625-21.921875 16.1875-35.558593 16.265625-27.480469-.679688-49.230469-23.460938-48.640626-50.941406-.566406-27.460938 21.183594-50.203125 48.640626-50.859375 14.015624.050781 27.289062 6.296875 36.257812 17.066406h-23.722656c-18.269532-.320313-33.71875 13.453125-35.488282 31.640625-.710937 9.890625 2.910157 19.601562 9.921876 26.617188zm0 0" data-original="#000000" class="active-path" data-old_color="#058cd3" fill="#058cd3"/></g> </svg>
