<?xml version="1.0"?>
<svg xmlns="http://www.w3.org/2000/svg" height="512px" viewBox="-20 -20 640.00019 640" width="512px"><g><path d="m300 120c-33.132812 0-60-26.859375-60-60 0-33.132812 26.867188-60 60-60 33.140625 0 60 26.867188 60 60-.035156 33.125-26.875 59.964844-60 60zm0-100c-22.089844 0-40 17.910156-40 40s17.910156 40 40 40 40-17.910156 40-40-17.910156-40-40-40zm0 0" data-original="#000000" class="active-path" data-old_color="#008ad2" fill="#008ad2"/><path d="m510 230h-90v-30c-.042969-38.640625-31.359375-69.957031-70-70h-100c-38.640625.042969-69.957031 31.359375-70 70v30h-80v100h40v60h20v-60h280v60h20v-60h50zm-310-30c.035156-27.601562 22.398438-49.964844 50-50h100c27.601562.035156 49.964844 22.398438 50 50v30h-200zm290 110h-370v-60h370zm0 0" data-original="#000000" class="active-path" data-old_color="#008ad2" fill="#008ad2"/><path d="m600 460c.0625-25.359375-15.820312-48.023438-39.683594-56.609375-23.867187-8.589844-50.550781-1.242187-66.660156 18.34375-16.109375 19.589844-18.160156 47.191406-5.125 68.945313-5.652344-.90625-11.414062-.90625-17.0625 0 15.09375-25.1875 9.738281-57.59375-12.65625-76.585938-22.386719-18.996094-55.238281-18.996094-77.625 0-22.394531 18.992188-27.746094 51.398438-12.65625 76.585938-5.652344-.90625-11.414062-.90625-17.0625 0 15.09375-25.1875 9.738281-57.59375-12.65625-76.585938-22.386719-18.996094-55.238281-18.996094-77.625 0-22.394531 18.992188-27.746094 51.398438-12.65625 76.585938-5.648438-.90625-11.410156-.90625-17.0625 0 15.09375-25.1875 9.738281-57.59375-12.65625-76.585938-22.386719-18.996094-55.238281-18.996094-77.625 0-22.394531 18.992188-27.746094 51.398438-12.65625 76.585938-5.648438-.90625-11.410156-.90625-17.0625 0 13.035156-21.753907 10.984375-49.355469-5.125-68.945313-16.109375-19.585937-42.792969-26.933594-66.65625-18.34375-23.867188 8.585937-39.75 31.25-39.6875 56.609375.00390625 10.808594 2.953125 21.414062 8.53125 30.679688-2.824219-.429688-5.675781-.65625-8.53125-.679688v20c16.695312-.09375 31.664062 10.242188 37.496094 25.886719 5.828125 15.640625 1.273437 33.257812-11.40625 44.113281h-26.089844v20h600v-20h-26.089844c-12.679687-10.855469-17.234375-28.472656-11.40625-44.113281 5.832032-15.644531 20.800782-25.980469 37.496094-25.886719v-20c-2.855469.023438-5.707031.25-8.53125.679688 5.578125-9.265626 8.527344-19.871094 8.53125-30.679688zm-60-40c22.089844 0 40 17.910156 40 40s-17.910156 40-40 40-40-17.910156-40-40 17.910156-40 40-40zm-120 0c22.089844 0 40 17.910156 40 40s-17.910156 40-40 40-40-17.910156-40-40 17.910156-40 40-40zm8.53125 99.320312c-11.257812 18.628907-11.382812 41.929688-.332031 60.679688h-16.398438c11.050781-18.75 10.921875-42.050781-.332031-60.679688 5.648438.902344 11.410156.902344 17.0625 0zm-28.53125 30.679688c-.109375 11.53125-5.175781 22.464844-13.910156 30h-52.179688c-13.890625-12.089844-17.710937-32.113281-9.234375-48.460938 8.472657-16.347656 27.039063-24.777343 44.921875-20.390624 17.886719 4.382812 30.449219 20.4375 30.402344 38.851562zm-91.800781 30h-16.398438c11.050781-18.75 10.925781-42.050781-.332031-60.679688 5.652344.902344 11.414062.902344 17.0625 0-11.253906 18.628907-11.382812 41.929688-.332031 60.679688zm-8.199219-160c22.089844 0 40 17.910156 40 40s-17.910156 40-40 40-40-17.910156-40-40 17.910156-40 40-40zm-20 130c-.105469 11.53125-5.175781 22.464844-13.910156 30h-52.179688c-13.890625-12.089844-17.707031-32.113281-9.230468-48.460938 8.46875-16.347656 27.035156-24.777343 44.921874-20.390624 17.882813 4.382812 30.449219 20.4375 30.398438 38.851562zm-91.800781 30h-16.398438c11.050781-18.75 10.925781-42.050781-.332031-60.679688 5.652344.902344 11.414062.902344 17.0625 0-11.253906 18.628907-11.382812 41.929688-.332031 60.679688zm-8.199219-160c22.089844 0 40 17.910156 40 40s-17.910156 40-40 40-40-17.910156-40-40 17.910156-40 40-40zm-120 0c22.089844 0 40 17.910156 40 40s-17.910156 40-40 40-40-17.910156-40-40 17.910156-40 40-40zm-8.53125 99.320312c2.824219.429688 5.675781.65625 8.53125.679688 2.855469-.023438 5.707031-.25 8.53125-.679688-11.253906 18.628907-11.382812 41.929688-.332031 60.679688h-16.398438c5.320313-9.105469 8.144531-19.453125 8.199219-30-.003906-10.8125-2.953125-21.417969-8.53125-30.679688zm42.082031 60.679688c-12.480469-11-16.851562-28.578125-10.96875-44.144531 5.878907-15.5625 20.78125-25.859375 37.417969-25.859375s31.539062 10.296875 37.417969 25.859375c5.882812 15.566406 1.511719 33.144531-10.96875 44.144531zm360 0c-12.480469-11-16.851562-28.578125-10.96875-44.144531 5.878907-15.5625 20.78125-25.859375 37.417969-25.859375s31.539062 10.296875 37.417969 25.859375c5.882812 15.566406 1.511719 33.144531-10.96875 44.144531zm78.25 0c11.050781-18.75 10.921875-42.050781-.332031-60.679688 5.648438.902344 11.410156.902344 17.0625 0-11.257812 18.628907-11.382812 41.929688-.332031 60.679688zm0 0" data-original="#000000" class="active-path" data-old_color="#008ad2" fill="#008ad2"/></g> </svg>
