<?xml version="1.0"?>
<svg xmlns="http://www.w3.org/2000/svg" xmlns:xlink="http://www.w3.org/1999/xlink" version="1.1" id="Capa_1" x="0px" y="0px" viewBox="0 0 480.002 480.002" style="enable-background:new 0 0 480.002 480.002;" xml:space="preserve" width="512px" height="512px"><g><g>
	<g>
		<path d="M472,328.001h-32v-88c0-2.128-0.84-4.16-2.344-5.656l-26.344-26.344l66.344-66.344c2.88-2.88,3.144-7.472,0.592-10.656    l-32-40c-1.376-1.72-3.408-2.8-5.6-2.976c-2.096-0.136-4.36,0.56-6,2.032l-75.704,68.136l-36.216-20.704    c-10.872-6.208-23.224-9.488-35.728-9.488h-1.84c16.344-13.208,26.84-33.392,26.84-56c0-39.704-32.296-72-72-72    c-39.704,0-72,32.296-72,72c0,22.608,10.496,42.792,26.84,56H193c-12.504,0-24.856,3.28-35.728,9.488l-36.216,20.704    L45.352,90.057c-1.64-1.472-3.864-2.168-6-2.032c-2.192,0.176-4.224,1.256-5.6,2.976l-32,40    c-2.544,3.184-2.288,7.776,0.592,10.656l70.344,70.344l-22.344,22.344C48.84,235.841,48,237.873,48,240.001v88H8    c-4.424,0-8,3.576-8,8v48c0,13.232,10.768,24,24,24v64c0,4.424,3.576,8,8,8h416c4.424,0,8-3.576,8-8v-64c13.232,0,24-10.768,24-24    v-48C480,331.577,476.424,328.001,472,328.001z M424,243.313v84.688h-64v-17.472c9.288-3.312,16-12.112,16-22.528v-16    c0-13.232-10.768-24-24-24s-24,10.768-24,24v16c0,10.416,6.712,19.216,16,22.528v17.472h-24V215.545l10.264,7.328    c21.408,15.312,50.056,13.48,69.52-3.776L424,243.313z M352,296.001c-4.416,0-8-3.584-8-8v-16c0-4.416,3.584-8,8-8    c4.416,0,8,3.584,8,8v16C360,292.417,356.416,296.001,352,296.001z M184,72.001c0-30.872,25.128-56,56-56s56,25.128,56,56    s-25.128,56-56,56S184,102.873,184,72.001z M18.72,135.409l22.232-27.792l73.696,66.328c2.56,2.312,6.328,2.72,9.32,1    l41.24-23.568c8.448-4.824,18.064-7.376,27.792-7.376h94c9.728,0,19.344,2.552,27.792,7.376l41.24,23.568    c2.984,1.72,6.752,1.32,9.32-1l73.696-66.328l22.232,27.792L400,196.689l-10.344-10.344l-11.312,11.312l10.128,10.128    c-13.888,11.72-33.888,12.808-48.912,2.072l-22.912-16.368c-2.448-1.752-5.64-1.968-8.312-0.608    c-2.664,1.376-4.336,4.12-4.336,7.12v128h-32v-65.472c9.288-3.312,16-12.112,16-22.528v-8c0-13.232-10.768-24-24-24    s-24,10.768-24,24v8c0,10.416,6.712,19.216,16,22.528v65.472h-56v-53.576l14.656-21.984l-13.312-8.872l-16,24    c-0.872,1.304-1.344,2.856-1.344,4.432v56h-8v-128c0-3-1.672-5.744-4.336-7.12c-2.68-1.376-5.872-1.144-8.312,0.608    l-22.912,16.368c-13.432,9.592-30.84,9.744-44.312,1.328l13.528-13.528l-11.312-11.312L84,200.689L18.72,135.409z M264,248.001    c-4.416,0-8-3.584-8-8v-8c0-4.416,3.584-8,8-8c4.416,0,8,3.584,8,8v8C272,244.417,268.416,248.001,264,248.001z M64,243.313    l20.568-20.568c19.224,13.864,45.312,14.32,65.16,0.136L160,215.545v112.456h-48v-44.688l29.656-29.656l-11.312-11.312l-32,32    C96.84,275.841,96,277.873,96,280.001v48H64V243.313z M440,464.001H40v-56h400V464.001z M464,384.001c0,4.416-3.584,8-8,8h-8H32    h-8c-4.416,0-8-3.584-8-8v-40h152h144h152V384.001z" data-original="#000000" class="active-path" data-old_color="#000000" fill="#008AD2"/>
	</g>
</g><g>
	<g>
		<rect x="200" y="360.001" width="16" height="16" data-original="#000000" class="active-path" data-old_color="#000000" fill="#008AD2"/>
	</g>
</g><g>
	<g>
		<rect x="232" y="360.001" width="16" height="16" data-original="#000000" class="active-path" data-old_color="#000000" fill="#008AD2"/>
	</g>
</g><g>
	<g>
		<rect x="264" y="360.001" width="16" height="16" data-original="#000000" class="active-path" data-old_color="#000000" fill="#008AD2"/>
	</g>
</g><g>
	<g>
		<rect x="232" y="160.001" width="16" height="16" data-original="#000000" class="active-path" data-old_color="#000000" fill="#008AD2"/>
	</g>
</g><g>
	<g>
		<path d="M456,0.001h-56c-13.232,0-24,10.768-24,24v12.688l-29.656,29.656c-2.288,2.288-2.976,5.728-1.736,8.72    c1.232,2.992,4.16,4.936,7.392,4.936h104c13.232,0,24-10.768,24-24v-32C480,10.769,469.232,0.001,456,0.001z M464,56.001    c0,4.416-3.584,8-8,8h-84.688l18.344-18.344c1.504-1.496,2.344-3.528,2.344-5.656v-16c0-4.416,3.584-8,8-8h56c4.416,0,8,3.584,8,8    V56.001z" data-original="#000000" class="active-path" data-old_color="#000000" fill="#008AD2"/>
	</g>
</g><g>
	<g>
		<rect x="408" y="32.001" width="40" height="16" data-original="#000000" class="active-path" data-old_color="#000000" fill="#008AD2"/>
	</g>
</g></g> </svg>
