<?xml version="1.0"?>
<svg xmlns="http://www.w3.org/2000/svg" height="512px" viewBox="0 0 496 496.00522" width="512px"><g><path d="m168.003906 160.003906h52.445313c4.242187 7.273438 11.210937 12.699219 19.554687 14.867188v49.132812h-16c-13.234375 0-24 10.769532-24 24v24h96v-24c0-13.230468-10.769531-24-24-24h-16v-49.132812c8.34375-2.167969 15.300782-7.59375 19.550782-14.867188h52.449218v-24c0-17.679687-11.875-33.421875-28.882812-38.285156l-27.117188-7.746094v-2.136718c9.964844-7.511719 16-19.328126 16-31.832032v-14.34375c0-21.496094-16.007812-39.726562-36.449218-41.503906-11.183594-1-22.34375 2.808594-30.574219 10.351562-8.25 7.570313-12.976563 18.320313-12.976563 29.496094v16c0 12.503906 6.03125 24.320313 16 31.832032v2.136718l-27.121094 7.746094c-17.007812 4.863281-28.878906 20.605469-28.878906 38.285156zm112 88v8h-64v-8c0-4.414062 3.589844-8 8-8h48c4.40625 0 8 3.585938 8 8zm-32-88c-8.824218 0-16-7.175781-16-16 0-8.824218 7.175782-16 16-16 8.824219 0 16 7.175782 16 16 0 8.824219-7.175781 16-16 16zm-64-24c0-10.574218 7.101563-19.992187 17.277344-22.894531l38.722656-11.070313v-23.074218l-3.976562-2.3125c-7.527344-4.382813-12.023438-12.101563-12.023438-20.648438v-16c0-6.710937 2.839844-13.160156 7.789063-17.695312 5.007812-4.597656 11.496093-6.832032 18.386719-6.207032 12.230468 1.0625 21.824218 12.289063 21.824218 25.558594v14.34375c0 8.546875-4.496094 16.265625-12.023437 20.648438l-3.976563 2.3125v23.074218l38.71875 11.070313c10.175782 2.902344 17.28125 12.320313 17.28125 22.894531v8h-32c0-17.648437-14.351562-32-32-32-17.648437 0-32 14.351563-32 32h-32zm0 0" data-original="#000000" class="active-path" data-old_color="#000000" fill="#008AD2"/><path d="m467.121094 257.71875-27.117188-7.746094v-2.136718c9.964844-7.511719 16-19.328126 16-31.832032v-14.34375c0-21.496094-16.007812-39.726562-36.449218-41.503906-11.199219-.96875-22.34375 2.808594-30.574219 10.351562-8.25 7.570313-12.976563 18.320313-12.976563 29.496094v16c0 12.503906 6.03125 24.320313 16 31.832032v2.136718l-27.121094 7.746094c-4.769531 1.367188-9.0625 3.65625-12.878906 6.527344v-72.242188h-80v16h64v272h-176v-272h64v-16h-80v72.242188c-3.808594-2.871094-8.113281-5.167969-12.882812-6.527344l-27.117188-7.746094v-2.136718c9.964844-7.511719 16-19.328126 16-31.832032v-14.34375c0-21.496094-16.007812-39.726562-36.449218-41.503906-11.207032-.96875-22.34375 2.808594-30.574219 10.351562-8.25 7.570313-12.976563 18.320313-12.976563 29.496094v16c0 12.503906 6.03125 24.320313 16 31.832032v2.136718l-27.121094 7.746094c-17.007812 4.863281-28.87890575 20.605469-28.87890575 38.285156v8h143.99999975v120.242188c-3.808594-2.871094-8.113281-5.167969-12.882812-6.527344l-27.117188-7.746094v-2.136718c9.964844-7.511719 16-19.328126 16-31.832032v-14.34375c0-21.496094-16.007812-39.726562-36.449218-41.503906-11.207032-.976562-22.34375 2.800781-30.574219 10.351562-8.25 7.570313-12.976563 18.320313-12.976563 29.496094v16c0 12.503906 6.03125 24.320313 16 31.832032v2.136718l-27.121094 7.746094c-17.007812 4.863281-28.87890575 20.605469-28.87890575 38.285156v8h143.99999975v32h208v-32h144v-8c0-17.679687-11.875-33.421875-28.882812-38.285156l-27.117188-7.746094v-2.136718c9.964844-7.511719 16-19.328126 16-31.832032v-14.34375c0-21.496094-16.007812-39.726562-36.449218-41.503906-11.199219-.976562-22.34375 2.800781-30.574219 10.351562-8.25 7.570313-12.976563 18.320313-12.976563 29.496094v16c0 12.503906 6.03125 24.320313 16 31.832032v2.136718l-27.121094 7.746094c-4.769531 1.367188-9.0625 3.65625-12.878906 6.527344v-120.242188h144v-8c0-17.679687-11.875-33.421875-28.882812-38.285156zm-449.71875 30.285156c2.542968-7.078125 8.375-12.757812 15.878906-14.894531l38.722656-11.070313v-23.074218l-3.976562-2.3125c-7.527344-4.382813-12.023438-12.101563-12.023438-20.648438v-16c0-6.710937 2.839844-13.160156 7.789063-17.695312 5.007812-4.597656 11.503906-6.800782 18.386719-6.207032 12.230468 1.0625 21.824218 12.289063 21.824218 25.558594v14.34375c0 8.546875-4.496094 16.265625-12.023437 20.648438l-3.976563 2.3125v23.074218l38.71875 11.070313c7.503906 2.144531 13.335938 7.824219 15.878906 14.894531zm0 160c2.542968-7.078125 8.375-12.757812 15.878906-14.894531l38.722656-11.070313v-23.074218l-3.976562-2.3125c-7.527344-4.382813-12.023438-12.101563-12.023438-20.648438v-16c0-6.710937 2.839844-13.160156 7.789063-17.695312 5.007812-4.597656 11.503906-6.800782 18.386719-6.207032 12.230468 1.0625 21.824218 12.289063 21.824218 25.558594v14.34375c0 8.546875-4.496094 16.265625-12.023437 20.648438l-3.976563 2.3125v23.074218l38.71875 11.070313c7.503906 2.144531 13.335938 7.824219 15.878906 14.894531zm351.878906-14.894531 38.722656-11.070313v-23.074218l-3.976562-2.3125c-7.527344-4.382813-12.023438-12.101563-12.023438-20.648438v-16c0-6.710937 2.839844-13.160156 7.789063-17.695312 5.007812-4.597656 11.496093-6.800782 18.386719-6.207032 12.230468 1.0625 21.824218 12.289063 21.824218 25.558594v14.34375c0 8.546875-4.496094 16.265625-12.023437 20.648438l-3.976563 2.3125v23.074218l38.71875 11.070313c7.503906 2.144531 13.335938 7.824219 15.878906 14.894531h-125.199218c2.542968-7.078125 8.375-12.757812 15.878906-14.894531zm-15.878906-145.105469c2.542968-7.078125 8.375-12.757812 15.878906-14.894531l38.722656-11.070313v-23.074218l-3.976562-2.3125c-7.527344-4.382813-12.023438-12.101563-12.023438-20.648438v-16c0-6.710937 2.839844-13.160156 7.789063-17.695312 5.007812-4.597656 11.496093-6.800782 18.386719-6.207032 12.230468 1.0625 21.824218 12.289063 21.824218 25.558594v14.34375c0 8.546875-4.496094 16.265625-12.023437 20.648438l-3.976563 2.3125v23.074218l38.71875 11.070313c7.503906 2.144531 13.335938 7.824219 15.878906 14.894531zm0 0" data-original="#000000" class="active-path" data-old_color="#000000" fill="#008AD2"/><path d="m24.003906 112.003906h21.574219l58.425781 38.945313v-38.945313h48c13.230469 0 24-10.765625 24-24v-64c0-13.230468-10.769531-23.99999975-24-23.99999975h-128c-13.234375 0-23.99999975 10.76953175-23.99999975 23.99999975v64c0 13.234375 10.76562475 24 23.99999975 24zm-8-88c0-4.414062 3.589844-8 8-8h128c4.40625 0 8 3.585938 8 8v64c0 4.417969-3.59375 8-8 8h-64v25.058594l-37.578125-25.058594h-26.421875c-4.410156 0-8-3.582031-8-8zm0 0" data-original="#000000" class="active-path" data-old_color="#000000" fill="#008AD2"/><path d="m32.003906 32.003906h112v16h-112zm0 0" data-original="#000000" class="active-path" data-old_color="#000000" fill="#008AD2"/><path d="m128.003906 64.003906h16v16h-16zm0 0" data-original="#000000" class="active-path" data-old_color="#000000" fill="#008AD2"/><path d="m32.003906 64.003906h80v16h-80zm0 0" data-original="#000000" class="active-path" data-old_color="#000000" fill="#008AD2"/><path d="m472.003906.00390625h-128c-13.234375 0-24 10.76953175-24 23.99999975v64c0 13.234375 10.765625 24 24 24h48v38.945313l58.421875-38.945313h21.578125c13.230469 0 24-10.765625 24-24v-64c0-13.230468-10.769531-23.99999975-24-23.99999975zm8 87.99999975c0 4.417969-3.59375 8-8 8h-26.425781l-37.574219 25.058594v-25.058594h-64c-4.410156 0-8-3.582031-8-8v-64c0-4.414062 3.589844-8 8-8h128c4.40625 0 8 3.585938 8 8zm0 0" data-original="#000000" class="active-path" data-old_color="#000000" fill="#008AD2"/><path d="m352.003906 32.003906h112v16h-112zm0 0" data-original="#000000" class="active-path" data-old_color="#000000" fill="#008AD2"/><path d="m352.003906 64.003906h80v16h-80zm0 0" data-original="#000000" class="active-path" data-old_color="#000000" fill="#008AD2"/><path d="m448.003906 64.003906h16v16h-16zm0 0" data-original="#000000" class="active-path" data-old_color="#000000" fill="#008AD2"/><path d="m320.003906 288.003906h-64v48h64zm-16 32h-32v-16h32zm0 0" data-original="#000000" class="active-path" data-old_color="#000000" fill="#008AD2"/><path d="m240.003906 288.003906h-64v48h64zm-16 32h-32v-16h32zm0 0" data-original="#000000" class="active-path" data-old_color="#000000" fill="#008AD2"/><path d="m256.003906 464.003906h64v-48h-64zm16-32h32v16h-32zm0 0" data-original="#000000" class="active-path" data-old_color="#000000" fill="#008AD2"/><path d="m176.003906 464.003906h64v-48h-64zm16-32h32v16h-32zm0 0" data-original="#000000" class="active-path" data-old_color="#000000" fill="#008AD2"/></g> </svg>
