<?xml version="1.0"?>
<svg xmlns="http://www.w3.org/2000/svg" height="512px" viewBox="0 -28 512 512" width="512px"><g><path d="m433.6875 177.253906c0-60.734375-49.410156-110.144531-110.144531-110.144531-14.023438 0-27.949219 2.703125-40.878907 7.867187v-51.453124c0-12.96875-10.554687-23.523438-23.523437-23.523438h-101.300781c-4.160156 0-7.527344 3.371094-7.527344 7.527344 0 4.160156 3.371094 7.527344 7.527344 7.527344h101.300781c4.667969 0 8.46875 3.800781 8.46875 8.46875v63.105468c-.003906.074219-.003906.152344 0 .226563v35.761719c0 4.671874-3.800781 8.46875-8.46875 8.46875h-48.804687c-3.390626 0-6.578126 1.320312-8.980469 3.71875l-19.390625 19.394531-19.390625-19.394531c-2.398438-2.398438-5.589844-3.71875-8.980469-3.71875h-48.800781c-4.671875 0-8.46875-3.796876-8.46875-8.46875v-99.089844c0-4.671875 3.796875-8.46875 8.46875-8.46875h22.765625c4.160156 0 7.527344-3.371094 7.527344-7.527344 0-4.160156-3.371094-7.52734375-7.527344-7.52734375h-22.765625c-12.972657 0-23.527344 10.55078175-23.527344 23.52343775v99.09375c0 12.972656 10.554687 23.527344 23.527344 23.527344h47.824219l20.367187 20.367187c2.476563 2.472656 5.730469 3.710937 8.980469 3.710937s6.503906-1.238281 8.980468-3.710937l20.367188-20.367187h6.546875c-2.960937 10.042968-4.460937 20.464843-4.460937 31.105468 0 12.933594 2.1875 25.457032 6.503906 37.378906h-188.960938c-17.0625-.003906-30.941406 13.875-30.941406 30.933594v145.023438c0 17.0625 13.878906 30.941406 30.941406 30.941406l71.449219.011719 30.816406 30.816406c2.945313 2.945313 6.808594 4.414063 10.675781 4.414063 3.867188 0 7.730469-1.46875 10.675782-4.414063l30.84375-30.828125h71.421875c17.0625 0 30.941406-13.878906 30.941406-30.9375v-63.496094c0-4.160156-3.371094-7.53125-7.527344-7.53125s-7.527343 3.371094-7.527343 7.53125v63.496094c0 8.753906-7.125 15.882812-15.882813 15.882812h-71.421875c-4.035156 0-7.824219 1.570313-10.675781 4.421876l-30.875 30.816406-30.820313-30.820313c-2.851562-2.847656-6.640625-4.417969-10.671875-4.417969h-71.421875c-8.757812 0-15.886718-7.125-15.886718-15.882812v-145.027344c0-8.753906 7.125-15.882812 15.882812-15.882812h225.886719c8.757812 0 15.882812 7.125 15.882812 15.882812v49.578125c0 4.15625 3.371094 7.527344 7.527344 7.527344 4.160156 0 7.53125-3.371094 7.53125-7.527344v-13.691406c11.449219 3.945313 23.4375 5.945313 35.777344 5.945313 60.734375 0 110.144531-49.410157 110.144531-110.144532zm-176.863281 37.375h-20.738281c-5.058594-11.789062-7.628907-24.339844-7.628907-37.375 0-10.707031 1.757813-21.144531 5.214844-31.109375h25.46875c12.96875 0 23.523437-10.550781 23.523437-23.527343v-31.21875c12.679688-6.042969 26.714844-9.234376 40.878907-9.234376 52.429687 0 95.085937 42.65625 95.085937 95.089844 0 52.429688-42.65625 95.085938-95.085937 95.085938-12.429688 0-24.441407-2.347656-35.777344-6.96875v-19.804688c0-17.058594-13.878906-30.9375-30.941406-30.9375zm0 0" data-original="#000000" class="active-path" data-old_color="#000000" fill="#008AD2"/><path d="m491.027344 300.363281h-129.734375c-11.566407 0-20.972657 9.410157-20.972657 20.972657v83.292968c0 11.5625 9.40625 20.972656 20.972657 20.972656h39.703125l16.769531 16.769532c2.3125 2.3125 5.351563 3.46875 8.394531 3.46875 3.039063 0 6.082032-1.15625 8.398438-3.46875l16.765625-16.769532h39.703125c11.5625 0 20.972656-9.410156 20.972656-20.972656v-83.289062c0-11.566406-9.410156-20.976563-20.972656-20.976563zm5.917968 104.265625c0 3.261719-2.65625 5.917969-5.917968 5.917969h-41.019532c-3.175781 0-6.15625 1.234375-8.398437 3.476563l-15.449219 15.453124-15.449218-15.449218c-2.242188-2.246094-5.226563-3.480469-8.398438-3.480469h-41.019531c-3.261719 0-5.917969-2.65625-5.917969-5.917969v-83.289062c0-3.265625 2.652344-5.917969 5.917969-5.917969h129.734375c3.261718 0 5.917968 2.652344 5.917968 5.917969zm0 0" data-original="#000000" class="active-path" data-old_color="#000000" fill="#008AD2"/><path d="m158.628906 318.191406 3.019532-2.527344 4.136718-3.945312c.851563-.84375 2.152344-2.34375 3.90625-4.5s3.082032-4.105469 3.984375-5.84375c.902344-1.738281 1.753907-3.867188 2.550781-6.394531.796876-2.527344 1.195313-5.105469 1.195313-7.738281 0-7.683594-2.949219-14.054688-8.84375-19.109376-5.894531-5.050781-13.792969-7.578124-23.683594-7.578124-8.84375 0-15.898437 2-21.160156 6-5.265625 4.003906-7.898437 8.210937-7.898437 12.632812 0 2.421875.8125 4.289062 2.4375 5.605469 1.628906 1.316406 3.4375 1.972656 5.433593 1.972656 1.570313 0 2.960938-.535156 4.164063-1.609375 1.207031-1.074219 2.234375-2.222656 3.070312-3.441406.839844-1.21875 2.414063-2.367188 4.722656-3.445313 2.308594-1.070312 5.191407-1.609375 8.652344-1.609375 4.929688 0 8.867188 1.171875 11.804688 3.511719 2.933594 2.34375 4.40625 5.644531 4.40625 9.914063 0 2.496093-.605469 4.917968-1.816406 7.257812-1.210938 2.339844-2.421876 4.109375-3.632813 5.308594-1.210937 1.195312-3.027344 2.832031-5.445313 4.917968l-4.582031 3.742188c-6.316406 5.621094-9.476562 13.84375-9.476562 24.664062 0 3.332032.554687 5.621094 1.660156 6.871094s2.972656 1.871094 5.605469 1.871094c5.261718 0 7.894531-1.894531 7.894531-5.683594 0-5.371094.421875-9.472656 1.265625-12.316406.839844-2.84375 3.050781-5.683594 6.628906-8.527344zm0 0" data-original="#000000" class="active-path" data-old_color="#000000" fill="#008AD2"/><path d="m142.996094 356.089844c-2.949219 0-5.316406 1.054687-7.105469 3.160156-1.792969 2.105469-2.683594 4.632812-2.683594 7.578125 0 2.84375.890625 5.34375 2.683594 7.5 1.789063 2.160156 4.15625 3.238281 7.105469 3.238281 2.945312 0 5.472656-1.078125 7.578125-3.238281 2.105469-2.15625 3.160156-4.65625 3.160156-7.5 0-2.945313-1.054687-5.472656-3.160156-7.578125s-4.632813-3.160156-7.578125-3.160156zm0 0" data-original="#000000" class="active-path" data-old_color="#000000" fill="#008AD2"/><path d="m315.808594 188.980469c0 4.003906 2.667968 6 8.011718 6 1.960938 0 3.789063-.523438 5.480469-1.578125 1.6875-1.050782 2.535157-2.523438 2.535157-4.421875 0-6.949219.378906-18.527344 1.144531-34.742188.761719-16.210937 1.144531-27.792969 1.144531-34.738281 0-2.632812-.980469-4.738281-2.945312-6.316406-1.964844-1.582032-4.417969-2.371094-7.363282-2.371094-2.945312 0-5.382812.765625-7.320312 2.289062-1.933594 1.527344-2.898438 3.660157-2.898438 6.398438 0 6.945312.367188 18.527344 1.105469 34.738281.734375 16.214844 1.105469 27.792969 1.105469 34.742188zm0 0" data-original="#000000" class="active-path" data-old_color="#000000" fill="#008AD2"/><path d="m323.96875 227.828125c3.046875 0 5.660156-1.078125 7.835938-3.238281 2.179687-2.15625 3.269531-4.65625 3.269531-7.5 0-2.945313-1.09375-5.472656-3.269531-7.578125-2.175782-2.105469-4.789063-3.160157-7.835938-3.160157-3.171875 0-5.828125 1.054688-7.960938 3.160157-2.136718 2.105469-3.199218 4.632812-3.199218 7.578125 0 2.949218 1.0625 5.476562 3.199218 7.582031 2.132813 2.105469 4.789063 3.15625 7.960938 3.15625zm0 0" data-original="#000000" class="active-path" data-old_color="#000000" fill="#008AD2"/><path d="m240.398438 31.519531h-118.839844c-4.160156 0-7.527344 3.371094-7.527344 7.527344s3.371094 7.527344 7.527344 7.527344h118.839844c4.15625 0 7.527343-3.371094 7.527343-7.527344s-3.371093-7.527344-7.527343-7.527344zm0 0" data-original="#000000" class="active-path" data-old_color="#000000" fill="#008AD2"/><path d="m247.925781 69.398438c0-4.160157-3.371093-7.527344-7.527343-7.527344h-118.839844c-4.160156 0-7.527344 3.367187-7.527344 7.527344 0 4.15625 3.371094 7.527343 7.527344 7.527343h118.839844c4.15625 0 7.527343-3.371093 7.527343-7.527343zm0 0" data-original="#000000" class="active-path" data-old_color="#000000" fill="#008AD2"/><path d="m121.558594 92.21875c-4.160156 0-7.527344 3.371094-7.527344 7.527344 0 4.160156 3.371094 7.53125 7.527344 7.53125h60.40625c4.15625 0 7.527344-3.371094 7.527344-7.53125 0-4.15625-3.371094-7.527344-7.527344-7.527344zm0 0" data-original="#000000" class="active-path" data-old_color="#000000" fill="#008AD2"/><path d="m398.761719 363.410156c0 4.335938-3.515625 7.851563-7.855469 7.851563-4.335938 0-7.851562-3.515625-7.851562-7.851563 0-4.335937 3.515624-7.851562 7.851562-7.851562 4.339844 0 7.855469 3.515625 7.855469 7.851562zm0 0" data-original="#000000" class="active-path" data-old_color="#000000" fill="#008AD2"/><path d="m432.199219 363.410156c0 4.335938-3.515625 7.851563-7.855469 7.851563-4.335938 0-7.851562-3.515625-7.851562-7.851563 0-4.335937 3.515624-7.851562 7.851562-7.851562 4.339844 0 7.855469 3.515625 7.855469 7.851562zm0 0" data-original="#000000" class="active-path" data-old_color="#000000" fill="#008AD2"/><path d="m466.402344 363.410156c0 4.335938-3.515625 7.851563-7.851563 7.851563-4.339843 0-7.855469-3.515625-7.855469-7.851563 0-4.335937 3.515626-7.851562 7.855469-7.851562 4.335938 0 7.851563 3.515625 7.851563 7.851562zm0 0" data-original="#000000" class="active-path" data-old_color="#000000" fill="#008AD2"/></g> </svg>
