<?xml version="1.0"?>
<svg xmlns="http://www.w3.org/2000/svg" xmlns:xlink="http://www.w3.org/1999/xlink" version="1.1" id="Layer_1" x="0px" y="0px" viewBox="0 0 512 512" style="enable-background:new 0 0 512 512;" xml:space="preserve" width="512px" height="512px"><g><g>
	<g>
		<path d="M145.511,171.778c-6.658,0-11.926-1.67-12.504-1.861c-4.136-1.361-6.931-5.224-6.931-9.579v-7.964    c0-37.68,31.355-58.011,60.857-58.011c16.516,0,31.599,6.08,42.471,17.12c11.745,11.926,17.789,28.875,17.48,49.011    c-0.084,5.509-4.574,9.93-10.083,9.93h-39.898c-13.354,0-22.44-2.119-29.145-7.41    C162.268,168.664,154.621,171.778,145.511,171.778z M186.933,114.532c-20.007,0-40.258,12.729-40.682,37.066    c5.99-0.2,8.873-2.91,10.192-9.467c0.867-4.306,4.421-7.556,8.788-8.035c4.365-0.478,8.54,1.925,10.32,5.941    c3.107,7.015,4.525,10.217,21.352,10.217h29.26c-1.354-10.126-5.128-18.524-11.13-24.619    C207.983,118.475,198.003,114.532,186.933,114.532z" data-original="#000000" class="active-path" data-old_color="#000000" fill="#008AD2"/>
	</g>
	<g>
		<path d="M186.857,235.062c-0.154,0-0.308,0-0.462-0.002c-32.12-0.184-60.32-26.215-60.32-55.706v-19.016    c0-5.57,4.515-10.085,10.084-10.085c5.57,0,10.085,4.515,10.085,10.085v19.016c0,18.479,19.206,35.417,40.294,35.537    c0.1,0.001,0.199,0.001,0.299,0.001c7.777,0,15.903-2.579,22.943-7.278c10.605-7.075,16.936-17.639,16.936-28.26v-19.016    c0-5.57,4.515-10.085,10.085-10.085c5.57,0,10.084,4.515,10.084,10.085v19.016c0,17.378-9.686,34.214-25.91,45.037    C210.655,231.28,198.556,235.062,186.857,235.062z" data-original="#000000" class="active-path" data-old_color="#000000" fill="#008AD2"/>
	</g>
	<g>
		<path d="M327.289,188.213c0-9.797-1.025-19.614-3.047-29.181c-1.152-5.449-6.5-8.935-11.952-7.781    c-5.449,1.151-8.934,6.502-7.781,11.952c1.732,8.198,2.611,16.612,2.611,25.01c0,28.645-10.079,54.978-26.87,75.656    c-12.545-27.545-40.589-46.652-77.006-51.348c-5.525-0.714-10.579,3.187-11.292,8.712c-0.712,5.524,3.189,10.58,8.712,11.292    c33.021,4.258,56.534,21.745,64.064,47.233c-21.011,17.895-48.229,28.713-77.931,28.713c-29.965,0-57.404-11.012-78.486-29.197    c7.474-25.107,31.133-42.393,64.475-46.691c5.524-0.712,9.424-5.768,8.712-11.292c-0.713-5.523-5.763-9.428-11.292-8.712    c-20.157,2.599-38.303,9.575-52.476,20.173c-11.027,8.247-19.439,18.593-24.889,30.466c-16.471-20.579-26.338-46.66-26.338-75.005    c0-66.294,53.963-120.229,120.292-120.229c28.247,0,55.669,9.953,77.212,28.027c4.266,3.58,10.627,3.023,14.207-1.244    c3.58-4.267,3.022-10.628-1.244-14.207c-25.17-21.116-57.195-32.745-90.175-32.745c-77.451,0-140.462,62.983-140.462,140.399    c0,39.599,16.484,75.416,42.947,100.97c0.509,0.619,1.1,1.171,1.748,1.656c25.109,23.435,58.789,37.802,95.767,37.802    c36.731,0,70.208-14.169,95.267-37.318c0.54-0.411,1.033-0.87,1.477-1.375C310.475,264.347,327.289,228.207,327.289,188.213z" data-original="#000000" class="active-path" data-old_color="#000000" fill="#008AD2"/>
		<path d="M495.102,411.844l-75.323-75.315c-10.891-10.884-25.417-16.878-40.904-16.878c-3.671,0-7.285,0.348-10.811,1.006    l-27.703-26.261c20.943-30.167,33.238-66.764,33.238-106.182C373.598,85.259,289.8,1.5,186.798,1.5S0,85.259,0,188.213    c0,102.954,83.797,186.713,186.798,186.713c38.502,0,74.318-11.707,104.08-31.741l30.438,28.869    c-0.16,1.763-0.25,3.541-0.251,5.334c-0.006,15.495,5.995,30.03,16.898,40.929l75.352,75.314    c10.883,10.878,25.406,16.868,40.892,16.868c15.487,0,30.01-5.99,40.894-16.869c10.904-10.899,16.905-25.435,16.899-40.929    C511.994,437.223,505.99,422.71,495.102,411.844z M20.169,188.213c0-91.832,74.749-166.543,166.629-166.543    c91.88,0,166.63,74.711,166.63,166.543s-74.75,166.543-166.63,166.543C94.919,354.756,20.169,280.045,20.169,188.213z     M307.185,330.855c7.43-6.274,14.373-13.108,20.745-20.451l19.495,18.48c-3.376,2.188-6.55,4.732-9.457,7.638    c-4.139,4.13-7.567,8.789-10.233,13.822L307.185,330.855z M480.842,479.366c-7.074,7.07-16.533,10.964-26.635,10.964    c-10.102,0-19.56-3.894-26.635-10.964l-75.351-75.314c-7.089-7.087-10.992-16.553-10.988-26.655    c0.001-2.49,0.241-4.941,0.707-7.327c0.008-0.046,0.019-0.093,0.026-0.139c1.436-7.225,4.954-13.847,10.255-19.137    c4.395-4.394,9.712-7.559,15.528-9.33c0.154-0.042,0.31-0.084,0.463-0.134c3.415-0.991,6.995-1.511,10.661-1.511    c10.102,0,19.566,3.897,26.645,10.973l75.329,75.321c7.078,7.064,10.979,16.51,10.982,26.597    C491.835,462.813,487.932,472.279,480.842,479.366z" data-original="#000000" class="active-path" data-old_color="#000000" fill="#008AD2"/>
		<path d="M292.236,129.47c1.971,1.985,4.564,2.978,7.155,2.978c2.569,0,5.14-0.976,7.106-2.93    c3.952-3.925,3.974-10.311,0.048-14.262l-0.144-0.145c-3.925-3.952-10.311-3.972-14.262-0.048    c-3.951,3.925-3.973,10.31-0.048,14.262L292.236,129.47z" data-original="#000000" class="active-path" data-old_color="#000000" fill="#008AD2"/>
	</g>
</g></g> </svg>
