<?xml version="1.0"?>
<svg xmlns="http://www.w3.org/2000/svg" xmlns:xlink="http://www.w3.org/1999/xlink" version="1.1" id="Capa_1" x="0px" y="0px" viewBox="0 0 480.033 480.033" style="enable-background:new 0 0 480.033 480.033;" xml:space="preserve" width="512px" height="512px"><g><g>
	<g>
		<path d="M171.472,354.433c15.95-16.234,23.268-39.063,19.728-61.544c-6.184-39.281-43.04-66.111-82.321-59.927    c-39.281,6.184-66.111,43.04-59.927,82.321c2.224,14.127,8.604,27.271,18.328,37.758C28.533,359.338,0.052,392.777,0,432.033v40    c0,4.418,3.582,8,8,8s8-3.582,8-8v-40c0.04-35.33,28.67-63.96,64-64h9.04c4.418-0.001,8-3.583,7.999-8.001    c0-2.91-1.581-5.59-4.127-6.999c-27.069-14.96-36.885-49.032-21.925-76.101c14.96-27.069,49.032-36.885,76.101-21.925    c27.069,14.96,36.885,49.032,21.925,76.101c-5.099,9.226-12.699,16.826-21.925,21.925c-3.866,2.139-5.266,7.007-3.127,10.873    c1.409,2.546,4.089,4.127,6.999,4.127H152c35.33,0.04,63.96,28.67,64,64v40c0,4.418,3.582,8,8,8s8-3.582,8-8v-40    C231.948,395.366,207.022,363.41,171.472,354.433z" data-original="#000000" class="active-path" data-old_color="#000000" fill="#008AD2"/>
	</g>
</g><g>
	<g>
		<path d="M419.472,354.433c15.95-16.234,23.268-39.063,19.728-61.544c-6.184-39.281-43.04-66.111-82.321-59.927    c-39.281,6.184-66.111,43.04-59.927,82.321c2.224,14.127,8.604,27.271,18.328,37.758c-38.747,6.298-67.228,39.737-67.28,78.992v40    c0,4.418,3.582,8,8,8s8-3.582,8-8v-40c0.04-35.33,28.67-63.96,64-64h9.04c4.418-0.001,8-3.583,7.999-8.001    c0-2.91-1.581-5.59-4.127-6.999c-27.069-14.96-36.885-49.032-21.925-76.101c14.96-27.069,49.032-36.885,76.101-21.925    c27.069,14.96,36.885,49.032,21.925,76.101c-5.099,9.226-12.699,16.826-21.925,21.925c-3.866,2.139-5.266,7.007-3.127,10.873    c1.409,2.546,4.089,4.127,6.999,4.127H400c35.33,0.04,63.96,28.67,64,64v40c0,4.418,3.582,8,8,8s8-3.582,8-8v-40    C479.948,395.366,455.022,363.41,419.472,354.433z" data-original="#000000" class="active-path" data-old_color="#000000" fill="#008AD2"/>
	</g>
</g><g>
	<g>
		<path d="M221.432,2.153c-1.623-1.55-3.837-2.323-6.072-2.12l-200,16c-4.404,0.355-7.687,4.212-7.332,8.616    c0.018,0.228,0.046,0.455,0.084,0.68l16,96c0.634,3.864,3.972,6.701,7.888,6.704h112.64l7.36,88.664    c0.315,3.784,3.246,6.826,7.016,7.28c0.326,0.04,0.655,0.058,0.984,0.056c3.439-0.006,6.489-2.209,7.576-5.472l30.192-90.528H216    c4.418,0,8-3.582,8-8v-112C224.002,5.8,223.071,3.668,221.432,2.153z M208,112.033h-16c-3.442,0.003-6.496,2.206-7.584,5.472    l-19.68,59.024L160,119.369c-0.346-4.157-3.829-7.35-8-7.336H38.776L25.32,31.313L208,16.697V112.033z" data-original="#000000" class="active-path" data-old_color="#000000" fill="#008AD2"/>
	</g>
</g><g>
	<g>
		<path d="M472.944,64.081l-208-24c-2.167-0.235-4.338,0.41-6.024,1.792c-1.679,1.397-2.714,3.421-2.864,5.6l-8,112    c-0.309,4.407,3.013,8.231,7.42,8.54c0.174,0.012,0.349,0.019,0.524,0.02h18.232l22.184,66.528    c1.088,3.266,4.142,5.469,7.584,5.472h0.304c3.553-0.135,6.591-2.599,7.456-6.048l14.568-58.28l138.12-7.672    c3.979-0.207,7.199-3.311,7.552-7.28l8-88C480.393,68.425,477.261,64.575,472.944,64.081z M456.656,152.425l-137.104,7.608    c-3.499,0.197-6.462,2.648-7.312,6.048l-9.344,37.352l-15.312-45.936c-1.09-3.262-4.144-5.463-7.584-5.464h-15.408l6.792-95.096    l191.944,22.144L456.656,152.425z" data-original="#000000" class="active-path" data-old_color="#000000" fill="#008AD2"/>
	</g>
</g><g>
	<g>
		<path d="M184,48.033H56c-4.418,0-8,3.582-8,8s3.582,8,8,8h128c4.418,0,8-3.582,8-8S188.418,48.033,184,48.033z" data-original="#000000" class="active-path" data-old_color="#000000" fill="#008AD2"/>
	</g>
</g><g>
	<g>
		<path d="M184,80.033H72c-4.418,0-8,3.582-8,8s3.582,8,8,8h112c4.418,0,8-3.582,8-8S188.418,80.033,184,80.033z" data-original="#000000" class="active-path" data-old_color="#000000" fill="#008AD2"/>
	</g>
</g><g>
	<g>
		<path d="M432,88.033H296c-4.418,0-8,3.582-8,8s3.582,8,8,8h136c4.418,0,8-3.582,8-8S436.418,88.033,432,88.033z" data-original="#000000" class="active-path" data-old_color="#000000" fill="#008AD2"/>
	</g>
</g><g>
	<g>
		<path d="M432,120.033H296c-4.418,0-8,3.582-8,8c0,4.418,3.582,8,8,8h136c4.418,0,8-3.582,8-8    C440,123.614,436.418,120.033,432,120.033z" data-original="#000000" class="active-path" data-old_color="#000000" fill="#008AD2"/>
	</g>
</g></g> </svg>
